<svg width="252" height="60" viewBox="0 0 252 60" fill="none" xmlns="http://www.w3.org/2000/svg">
<mask id="mask0" mask-type="alpha" maskUnits="userSpaceOnUse" x="0" y="0" width="253" height="60">
<g clip-path="url(#clip0)">
<path d="M76.8887 0H92.5625L104.801 42.7545L111.736 16.1823H123.817L130.814 42.7545L136.982 16.1823H152.702L139.792 54.2363H123.982L117.605 29.5917L111.12 54.2363H95.4515L76.8887 0Z" fill="black"/>
<path d="M179.198 16.1272C194.973 16.1248 203.168 22.8894 203.168 35.2117C203.168 47.5196 195.026 54.2363 179.198 54.2363H155.1V16.1272H179.198ZM169.676 44.1194H176.923C184.126 44.1194 187.511 41.7105 187.511 34.8477C187.511 28.0736 184.186 25.5617 176.923 25.5617H169.676V44.1194Z" fill="black"/>
<path d="M222.178 42.6514C222.449 44.6509 224.785 45.8529 228.781 45.8529C232.666 45.8529 234.685 44.9526 234.685 43.1255C234.685 41.4949 232.922 40.4987 229.451 40.0773L218.554 38.7124C209.535 37.6085 204.969 33.7916 204.969 27.3862C204.969 18.6916 211.93 15.186 226.649 15.186C241.944 15.186 249.672 18.7467 250.292 27.2425H233.337C232.973 24.8743 230.544 23.6292 226.026 23.6292C222.559 23.6292 220.732 24.678 220.732 26.1387C220.732 27.8172 222.559 28.2914 226.342 28.8134L239.611 30.7553C247.909 31.9502 251.998 35.5803 251.998 41.8612C251.998 51.3939 243.702 55.3832 226.44 55.3832C212.134 55.3832 204.658 50.6611 204.557 42.649H222.178V42.6514Z" fill="black"/>
<path d="M65.9841 47.0648C66.0727 47.0648 66.1493 47.0648 66.226 47.048C67.522 46.8134 67.4166 44.7756 67.4166 44.7756V4.18814C67.4166 3.00284 66.8009 2.84001 66.4536 2.8448C66.3673 2.8448 63.5191 2.36589 61.5811 2.03784C61.7943 2.21983 61.9692 2.55506 61.9692 3.17764V44.5577C61.9692 44.5577 62.0818 46.8493 60.5391 46.8493L65.9841 47.0648Z" fill="#76B82A"/>
<path d="M37.8512 49.7394C37.5661 50.1872 37.0655 50.4961 36.4977 50.4961H17.9397C17.0606 50.4961 16.3371 49.7657 16.3371 48.8798V11.8817C16.3371 10.9909 17.0606 10.263 17.9397 10.263H36.4977C36.6367 10.263 36.7684 10.2846 36.8906 10.3181L53.6185 3.50082V0H7.53364C3.96912 0 0.47168 3.57026 0.47168 6.51554V59.9976H45.9912C52.0829 59.9976 53.6185 56.4704 53.6185 53.3623V47.7328L37.8512 49.7394Z" fill="#009FE3"/>
<path d="M38.1149 11.8504L58.8265 3.40968C58.8265 3.40968 59.9571 3.09121 59.9571 4.65724V42.728C59.9571 42.728 60.0745 44.9023 58.6061 44.9023L38.1125 47.7206C38.1125 47.7206 37.0513 48.1062 37.0513 46.6814V13.2297C37.0537 13.2297 37.0129 12.3054 38.1149 11.8504Z" fill="#76B82A"/>
</g>
</mask>
<g mask="url(#mask0)">
<rect x="-29.9155" y="-55" width="312.126" height="170" fill="#9A9A9A"/>
</g>
<defs>
<clipPath id="clip0">
<rect width="251.529" height="60" fill="white" transform="translate(0.47168)"/>
</clipPath>
</defs>
</svg>
