<svg width="128" height="128" viewBox="0 0 128 128" fill="none" xmlns="http://www.w3.org/2000/svg">
<path d="M57.0844 4.00012H19.7349C17.6721 4.00012 16 5.67221 16 7.73506V119.783C16 121.846 17.6721 123.518 19.7349 123.518H57.0844C59.1472 123.518 60.8193 121.846 60.8193 119.783V7.73506C60.8193 5.67221 59.147 4.00012 57.0844 4.00012ZM53.3494 116.048H23.4699V104.844H42.1446V97.3737H23.4699V86.1688H34.6747V78.699H23.4699V67.4941H42.1446V60.0242H23.4699V48.8194H34.6747V41.3495H23.4699V30.1447H42.1446V22.6748H23.4699V11.47H53.3494V116.048Z" fill="#44C8D4"/>
<path d="M106.731 98.497L94.4062 110.785V16.7392L106.694 29.0271L111.96 23.7609L93.2857 5.08617C91.8288 3.63794 89.4763 3.63794 88.0194 5.08617L69.3447 23.7609L74.611 29.0271L86.9363 16.7392V110.785L74.6483 98.497L69.3821 103.763L88.0568 122.438C89.5136 123.886 91.8662 123.886 93.3231 122.438L111.998 103.763L106.731 98.497Z" fill="#44C8D4"/>
</svg>
