<svg width="128" height="128" viewBox="0 0 128 128" fill="none" xmlns="http://www.w3.org/2000/svg">
<path d="M85.332 16H5.33203V85.3333H85.332V16Z" stroke="#44C8D4" stroke-width="8" stroke-linecap="round" stroke-linejoin="round"/>
<path d="M85.332 42.6667H106.665L122.665 58.6667V85.3334H85.332V42.6667Z" stroke="#44C8D4" stroke-width="8" stroke-linecap="round" stroke-linejoin="round"/>
<path d="M29.3333 112C36.6971 112 42.6667 106.03 42.6667 98.6666C42.6667 91.3028 36.6971 85.3333 29.3333 85.3333C21.9695 85.3333 16 91.3028 16 98.6666C16 106.03 21.9695 112 29.3333 112Z" stroke="#44C8D4" stroke-width="8" stroke-linecap="round" stroke-linejoin="round"/>
<path d="M98.6654 112C106.029 112 111.999 106.03 111.999 98.6666C111.999 91.3028 106.029 85.3333 98.6654 85.3333C91.3016 85.3333 85.332 91.3028 85.332 98.6666C85.332 106.03 91.3016 112 98.6654 112Z" stroke="#44C8D4" stroke-width="8" stroke-linecap="round" stroke-linejoin="round"/>
</svg>
