<svg width="128" height="128" viewBox="0 0 128 128" fill="none" xmlns="http://www.w3.org/2000/svg">
<path d="M74.6663 10.6664H31.9997C29.1707 10.6664 26.4576 11.7902 24.4572 13.7906C22.4568 15.791 21.333 18.5041 21.333 21.3331V106.666C21.333 109.495 22.4568 112.208 24.4572 114.209C26.4576 116.209 29.1707 117.333 31.9997 117.333H95.9997C98.8286 117.333 101.542 116.209 103.542 114.209C105.543 112.208 106.666 109.495 106.666 106.666V42.6664L74.6663 10.6664Z" stroke="#44C8D4" stroke-width="8.02084" stroke-linecap="round" stroke-linejoin="round"/>
<path d="M74.667 10.6664V42.6664H106.667" stroke="#44C8D4" stroke-width="8.02084" stroke-linecap="round" stroke-linejoin="round"/>
<path d="M85.3327 69.3335H42.666" stroke="#44C8D4" stroke-width="8.02084" stroke-linecap="round" stroke-linejoin="round"/>
<path d="M85.3327 90.6663H42.666" stroke="#44C8D4" stroke-width="8.02084" stroke-linecap="round" stroke-linejoin="round"/>
<path d="M53.3327 47.9997H47.9993H42.666" stroke="#44C8D4" stroke-width="8.02084" stroke-linecap="round" stroke-linejoin="round"/>
</svg>
