<svg width="128" height="128" viewBox="0 0 128 128" fill="none" xmlns="http://www.w3.org/2000/svg">
<path d="M112.429 66.2228V66.6728H112.879H115.101C116.594 66.6728 117.773 65.4935 117.773 64.0006C117.773 62.5076 116.594 61.3284 115.101 61.3284H112.879H112.429V61.7784V66.2228Z" fill="#44C8D4" stroke="#44C8D4" stroke-width="0.9"/>
<path d="M66.2109 61.3284H65.7609V61.7784V66.2228V66.6728H66.2109H112.878H113.328V66.2228V61.7784V61.3284H112.878H66.2109Z" fill="#44C8D4" stroke="#44C8D4" stroke-width="0.9"/>
<path d="M117.333 64H116.883C116.883 64.9959 116.107 65.7722 115.111 65.7722H112.889H112.439V66.2222V106.222C112.439 109.663 109.663 112.439 106.222 112.439H66.2222H65.7722V112.889V115.111C65.7722 116.107 64.9959 116.883 64 116.883V117.333V117.783H106.222C112.604 117.783 117.783 112.604 117.783 106.222V64H117.333Z" fill="#44C8D4" stroke="#44C8D4" stroke-width="0.9"/>
<path d="M112.439 61.7777V62.2277H112.889H115.111C116.107 62.2277 116.883 63.004 116.883 63.9999H117.333H117.783V21.7777C117.783 15.3958 112.604 10.2166 106.222 10.2166H64V10.6666V11.1166C64.9959 11.1166 65.7722 11.8929 65.7722 12.8888V15.111V15.561H66.2222H106.222C109.663 15.561 112.439 18.3373 112.439 21.7777V61.7777Z" fill="#44C8D4" stroke="#44C8D4" stroke-width="0.9"/>
<path d="M102.219 39.5554C102.219 38.0624 101.04 36.8831 99.5468 36.8831H81.7691C80.2761 36.8831 79.0969 38.0624 79.0969 39.5554C79.0969 41.0483 80.2761 42.2276 81.7691 42.2276H99.5468C101.04 42.2276 102.219 41.0483 102.219 39.5554Z" fill="#44C8D4" stroke="#44C8D4" stroke-width="0.9"/>
<path d="M102.219 84.0005C102.219 82.5076 101.04 81.3284 99.5468 81.3284H81.7691C80.2761 81.3284 79.0969 82.5076 79.0969 84.0005C79.0969 85.4935 80.2761 86.6727 81.7691 86.6727H99.5468C101.04 86.6727 102.219 85.4935 102.219 84.0005Z" fill="#44C8D4" stroke="#44C8D4" stroke-width="0.9"/>
<path d="M102.219 97.3337C102.219 95.8407 101.04 94.6615 99.5468 94.6615H81.7691C80.2761 94.6615 79.0969 95.8407 79.0969 97.3337C79.0969 98.8266 80.2761 100.006 81.7691 100.006H99.5468C101.04 100.006 102.219 98.8266 102.219 97.3337Z" fill="#44C8D4" stroke="#44C8D4" stroke-width="0.9"/>
<path d="M66.6835 112.888V112.438H66.2335H61.7891H61.3391V112.888V115.111C61.3391 116.604 62.5183 117.783 64.0113 117.783C65.5042 117.783 66.6835 116.604 66.6835 115.111V112.888Z" fill="#44C8D4" stroke="#44C8D4" stroke-width="0.9"/>
<path d="M61.7891 65.7717H61.3391V66.2217V112.888V113.338H61.7891H66.2335H66.6835V112.888V66.2217V65.7717H66.2335H61.7891Z" fill="#44C8D4" stroke="#44C8D4" stroke-width="0.9"/>
<path d="M61.7891 61.3284H61.3391V61.7784V66.2228V66.6728H61.7891H66.2335H66.6835V66.2228V61.7784V61.3284H66.2335H61.7891Z" fill="#44C8D4" stroke="#44C8D4" stroke-width="0.9"/>
<path d="M61.7891 14.6615H61.3391V15.1115V61.7781V62.2281H61.7891H66.2335H66.6835V61.7781V15.1115V14.6615H66.2335H61.7891Z" fill="#44C8D4" stroke="#44C8D4" stroke-width="0.9"/>
<path d="M66.2335 15.561H66.6835V15.111V12.8888C66.6835 11.3958 65.5042 10.2166 64.0113 10.2166C62.5183 10.2166 61.3391 11.3958 61.3391 12.8888V15.111V15.561H61.7891H66.2335Z" fill="#44C8D4" stroke="#44C8D4" stroke-width="0.9"/>
<path d="M15.125 61.3284H14.675V61.7784V66.2228V66.6728H15.125H61.7917H62.2417V66.2228V61.7784V61.3284H61.7917H15.125Z" fill="#44C8D4" stroke="#44C8D4" stroke-width="0.9"/>
<path d="M39.0969 41.7776V42.2276H39.5469H46.2135C47.7065 42.2276 48.8857 41.0483 48.8857 39.5554C48.8857 38.0624 47.7065 36.8831 46.2135 36.8831H39.5469H39.0969V37.3331V41.7776Z" fill="#44C8D4" stroke="#44C8D4" stroke-width="0.9"/>
<path d="M37.0177 93.4595L36.6995 93.7777L37.0177 94.0959L42.1209 99.1991C42.6162 99.7436 43.3175 100.006 44.0026 100.006C44.6862 100.006 45.3857 99.7448 45.8808 99.203C46.9423 98.1811 46.9396 96.474 45.8725 95.4556L40.7653 90.3484L40.4471 90.0302L40.1289 90.3484L37.0177 93.4595Z" fill="#44C8D4" stroke="#44C8D4" stroke-width="0.9"/>
<path d="M40.1289 90.9854L40.4471 91.3036L40.7653 90.9854L45.8725 85.8782C46.941 84.8585 46.9423 83.1481 45.8765 82.1267C44.8551 81.0609 43.1447 81.0622 42.125 82.1307L37.0177 87.2379L36.6995 87.5561L37.0177 87.8743L40.1289 90.9854Z" fill="#44C8D4" stroke="#44C8D4" stroke-width="0.9"/>
<path d="M33.8927 90.3435L33.5745 90.6617L33.8927 90.9799L37.004 94.0912L37.3222 94.4094L37.6404 94.0912L40.7517 90.9799L41.0699 90.6617L40.7517 90.3435L37.6404 87.2321L37.3222 86.9139L37.004 87.2321L33.8927 90.3435Z" fill="#44C8D4" stroke="#44C8D4" stroke-width="0.9"/>
<path d="M40.0195 41.7784V41.3284H39.5695H35.125H34.675V41.7784V48.445C34.675 49.938 35.8543 51.1173 37.3472 51.1173C38.8402 51.1173 40.0195 49.938 40.0195 48.445V41.7784Z" fill="#44C8D4" stroke="#44C8D4" stroke-width="0.9"/>
<path d="M35.125 36.8831H34.675V37.3331V41.7776V42.2276H35.125H39.5695H40.0195V41.7776V37.3331V36.8831H39.5695H35.125Z" fill="#44C8D4" stroke="#44C8D4" stroke-width="0.9"/>
<path d="M39.5695 37.7838H40.0195V37.3338V30.6671C40.0195 29.1741 38.8402 27.9949 37.3472 27.9949C35.8543 27.9949 34.675 29.1741 34.675 30.6671V37.3338V37.7838H35.125H39.5695Z" fill="#44C8D4" stroke="#44C8D4" stroke-width="0.9"/>
<path d="M37.6642 87.8743L37.9824 87.5561L37.6642 87.2379L32.5569 82.1307C31.5372 81.0622 29.8268 81.0609 28.8054 82.1267C27.7396 83.1481 27.7409 84.8585 28.8094 85.8782L33.9166 90.9854L34.2348 91.3036L34.553 90.9854L37.6642 87.8743Z" fill="#44C8D4" stroke="#44C8D4" stroke-width="0.9"/>
<path d="M35.5498 37.3331V36.8831H35.0998H28.4332C26.9402 36.8831 25.7609 38.0624 25.7609 39.5554C25.7609 41.0483 26.9402 42.2276 28.4332 42.2276H35.0998H35.5498V41.7776V37.3331Z" fill="#44C8D4" stroke="#44C8D4" stroke-width="0.9"/>
<path d="M34.553 90.3484L34.2348 90.0302L33.9166 90.3484L28.8094 95.4556C27.7423 96.4739 27.7396 98.1811 28.8011 99.203C29.2961 99.7448 29.9957 100.006 30.6793 100.006C31.3644 100.006 32.0657 99.7436 32.5609 99.1991L37.6642 94.0959L37.9824 93.7777L37.6642 93.4595L34.553 90.3484Z" fill="#44C8D4" stroke="#44C8D4" stroke-width="0.9"/>
<path d="M15.5624 61.7784V61.3284H15.1124H12.8902C11.3972 61.3284 10.218 62.5076 10.218 64.0006C10.218 65.4935 11.3972 66.6728 12.8902 66.6728H15.1124H15.5624V66.2228V61.7784Z" fill="#44C8D4" stroke="#44C8D4" stroke-width="0.9"/>
<path d="M61.7791 15.561H62.2291V15.111V12.8888C62.2291 11.8929 63.0054 11.1166 64.0013 11.1166V10.6666V10.2166H21.7791C15.3972 10.2166 10.218 15.3958 10.218 21.7777V63.9999H10.668H11.118C11.118 63.004 11.8943 62.2277 12.8902 62.2277H15.1124H15.5624V61.7777V21.7777C15.5624 18.3373 18.3387 15.561 21.7791 15.561H61.7791Z" fill="#44C8D4" stroke="#44C8D4" stroke-width="0.9"/>
<path d="M62.2291 112.889V112.439H61.7791H21.7791C18.3387 112.439 15.5624 109.663 15.5624 106.222V66.2222V65.7722H15.1124H12.8902C11.8943 65.7722 11.118 64.9959 11.118 64H10.668H10.218V106.222C10.218 112.604 15.3972 117.783 21.7791 117.783H64.0013V117.333V116.883C63.0054 116.883 62.2291 116.107 62.2291 115.111V112.889Z" fill="#44C8D4" stroke="#44C8D4" stroke-width="0.9"/>
</svg>
