<svg width="130" height="32" viewBox="0 0 130 32" fill="none" xmlns="http://www.w3.org/2000/svg">
<mask id="mask0" mask-type="alpha" maskUnits="userSpaceOnUse" x="0" y="0" width="130" height="32">
<path d="M9.6544 10.0139H9.41227C9.33067 9.73333 9.15733 9.59413 8.8928 9.59413H5.904V16.5755C5.904 16.8139 6.048 16.9739 6.33867 17.0619V17.272H3.29867V17.0619C3.59733 16.9664 3.7488 16.8037 3.7488 16.5755V9.59466H0.745067C0.5008 9.59466 0.329067 9.73386 0.2224 10.0144H0V7.62133H0.2224C0.317333 7.92 0.491733 8.0688 0.745067 8.0688H8.88907C9.1568 8.0688 9.33067 7.92053 9.41013 7.62133H9.6544V10.0139ZM20.832 17.7803H20.6315C20.5339 17.488 20.3675 17.3429 20.136 17.3429H11.6853V17.1307C11.9733 17.0331 12.1173 16.8704 12.1173 16.6416V8.78826C12.1173 8.5408 11.9733 8.37653 11.6853 8.29866V8.072H19.9696C20.2112 8.072 20.3728 7.92266 20.4501 7.62133H20.6816V10.0315H20.4501C20.3728 9.7488 20.2112 9.608 19.9696 9.608H14.1264V11.7925H17.9285C18.1712 11.7925 18.3301 11.6517 18.4091 11.3691H18.6405V13.6997H18.4091C18.3301 13.4091 18.1712 13.2651 17.9285 13.2651H14.1264V15.808H20.136C20.3675 15.808 20.5339 15.6656 20.632 15.3813H20.832V17.7803ZM31.5013 10.8453C31.5013 11.3419 31.2971 11.6784 30.8869 11.8517C30.5989 11.9733 30.1243 12.032 29.4581 12.032H26.3216V9.62986H29.4581C30.1349 9.62986 30.6155 9.69226 30.904 9.8128C31.304 9.9968 31.5013 10.3408 31.5013 10.8453ZM34.0453 17.0613C33.7595 17.0437 33.5013 16.9088 33.2837 16.6571C33.1165 16.4397 32.9557 16.2173 32.8016 15.9904L30.9904 13.4693C32.6843 13.2085 33.5312 12.3344 33.5312 10.8453C33.5312 9.8352 33.2043 9.12106 32.5525 8.70186C31.9648 8.32 31.0123 8.128 29.6949 8.128H23.8827V8.35146C24.1707 8.42826 24.3136 8.5904 24.3136 8.83413V16.5792C24.3136 16.8048 24.1707 16.9659 23.8827 17.0613V17.2709H26.7728V17.0613C26.4725 16.9744 26.3227 16.8144 26.3227 16.5792V13.5488H28.8165L30.7083 16.2251C30.9189 16.5216 31.0229 16.7179 31.0229 16.8144C31.0229 16.944 30.9077 17.0267 30.6741 17.0613V17.2709H34.0453V17.0613ZM48.7803 17.2709H45.9056V17.0613C46.1883 16.9755 46.3323 16.8123 46.3323 16.5781V10.9483L42.7653 17.1403L39.3456 10.9483V16.5781C39.3456 16.8123 39.4949 16.9755 39.7893 17.0613V17.2709H37.0933V17.0613C37.3781 16.9653 37.5211 16.8053 37.5211 16.5781V8.832C37.5211 8.57973 37.3781 8.4192 37.0933 8.3504V8.128H40.6283V8.3504C40.4176 8.40266 40.3157 8.52053 40.3157 8.70613C40.3157 8.79146 40.3424 8.8976 40.4 9.0208L42.928 13.6288L45.4656 9.09493C45.5712 8.90293 45.624 8.74933 45.624 8.63733C45.624 8.45493 45.5163 8.3584 45.296 8.3504V8.128H48.7803V8.3504C48.4843 8.41973 48.3376 8.57973 48.3376 8.832V16.5781C48.3376 16.8059 48.4843 16.9653 48.7803 17.0613V17.2709ZM54.8784 17.2709H51.8293V17.0613C52.1339 16.9653 52.2837 16.8053 52.2837 16.5781V8.832C52.2837 8.57973 52.1344 8.4192 51.8293 8.3504V8.128H54.8784V8.3504C54.5637 8.41973 54.408 8.57973 54.408 8.832V16.5781C54.408 16.8123 54.5643 16.9755 54.8784 17.0613V17.2709ZM69.1083 17.2709H66.1323V17.0619C66.3264 17.0192 66.4203 16.9168 66.4203 16.76C66.4203 16.6928 66.3019 16.5403 66.0651 16.3035L60.7541 10.9829V16.5755C60.7541 16.8123 60.9061 16.9744 61.2107 17.0613V17.2709H58.4373V17.0613C58.7323 16.9653 58.8768 16.8053 58.8768 16.5781V8.832C58.8768 8.57973 58.7323 8.4192 58.4373 8.3504V8.128H61.6677V8.3504C61.4549 8.38453 61.3472 8.4784 61.3472 8.63733C61.3472 8.75786 61.4096 8.88053 61.5339 9.00266L66.7573 14.2405V8.832C66.7573 8.58826 66.6123 8.42773 66.3184 8.3504V8.128H69.1077V8.3504C68.816 8.42773 68.6693 8.58826 68.6693 8.832V16.5781C68.6693 16.8123 68.816 16.9755 69.1083 17.0613V17.2709ZM82.3173 8.35946C82.0395 8.44053 81.8987 8.60693 81.8987 8.8608V14.1739C81.8987 15.5099 81.5381 16.4459 80.8176 16.9792C80.0987 17.512 78.9061 17.7792 77.2437 17.7792C75.6128 17.7792 74.4437 17.5056 73.7291 16.9648C72.9808 16.4155 72.6069 15.4843 72.6069 14.1744V8.8608C72.6069 8.60693 72.456 8.44053 72.1547 8.35946V8.128H75.1008V8.36C74.7979 8.44 74.6496 8.60693 74.6496 8.86133V13.5776C74.6496 14.2176 74.7227 14.7152 74.8667 15.0672C75.0907 15.5925 75.5024 15.9211 76.1061 16.0571C76.4405 16.1301 76.8485 16.1659 77.328 16.1659C77.8293 16.1659 78.2491 16.1301 78.584 16.0571C79.5328 15.8501 80.0069 15.0507 80.0069 13.6581V8.8608C80.0069 8.60693 79.8613 8.44053 79.5712 8.35946V8.128H82.3179V8.35946H82.3173ZM94.0053 14.7509C94.0053 15.7205 93.5685 16.4816 92.6965 17.0315C91.8885 17.5307 90.8448 17.7787 89.5605 17.7787C88.2997 17.7787 87.0507 17.4853 85.8155 16.8997C85.5525 16.7733 85.3952 16.712 85.3376 16.712C85.2923 16.712 85.2 16.7653 85.0645 16.872L84.8587 16.7653L85.8827 14.472L86.0869 14.5648C86.0869 15.0544 86.536 15.4608 87.4325 15.7808C88.1712 16.0544 88.8907 16.1925 89.5947 16.1925C90.1616 16.1925 90.6725 16.1035 91.1275 15.9259C91.6944 15.6949 91.9803 15.3787 91.9803 14.9797C91.9803 14.6048 91.7659 14.3365 91.3328 14.1664C91.0715 14.0699 90.6395 13.9904 90.0379 13.9264L88.9488 13.8208C87.6981 13.6944 86.7621 13.4421 86.1371 13.0592C85.5131 12.6779 85.2 12.0256 85.2 11.1019C85.2 10.1499 85.5861 9.41226 86.36 8.88853C87.0853 8.38026 88.0688 8.128 89.3067 8.128C90.0219 8.128 90.6336 8.1936 91.1445 8.32746C91.4332 8.40024 91.7175 8.48909 91.9963 8.5936C92.2469 8.6912 92.5029 8.79413 92.7637 8.90026C93.1483 9.05226 93.3872 9.128 93.4789 9.128C93.5573 9.128 93.6725 9.07786 93.8203 8.9808L94.0053 9.07413L92.8805 11.2725L92.6965 11.1664C92.6965 10.9963 92.6731 10.8789 92.6272 10.8075C92.5819 10.736 92.4693 10.6437 92.2875 10.5269C91.4245 9.97546 90.4475 9.70026 89.3579 9.70026C87.8699 9.70026 87.1259 10.0603 87.1259 10.7792C87.1259 11.1013 87.2629 11.3323 87.5339 11.4736C87.6709 11.5445 87.8805 11.6059 88.1653 11.6587C88.496 11.7227 89.2085 11.8064 90.3093 11.9136C91.5029 12.0299 92.3979 12.2912 93.0037 12.7008C93.6725 13.1616 94.0053 13.8475 94.0053 14.7509Z" fill="#3D544E"/>
<path d="M9.6544 10.0139H9.41227C9.33067 9.73334 9.15733 9.59414 8.8928 9.59414H5.904V16.5755C5.904 16.8139 6.048 16.9739 6.33867 17.0619V17.272H3.29867V17.0619C3.59733 16.9664 3.7488 16.8037 3.7488 16.5755V9.59467H0.745067C0.5008 9.59467 0.329067 9.73387 0.2224 10.0144H0V7.62134H0.2224C0.317333 7.92 0.491733 8.0688 0.745067 8.0688H8.88907C9.1568 8.0688 9.33067 7.92054 9.41013 7.62134H9.6544V10.0139ZM20.832 17.7803H20.6315C20.5339 17.488 20.3675 17.3429 20.136 17.3429H11.6853V17.1307C11.9733 17.0331 12.1173 16.8704 12.1173 16.6416V8.78827C12.1173 8.5408 11.9733 8.37654 11.6853 8.29867V8.072H19.9696C20.2112 8.072 20.3728 7.92267 20.4501 7.62134H20.6816V10.0315H20.4501C20.3728 9.7488 20.2112 9.608 19.9696 9.608H14.1264V11.7925H17.9285C18.1712 11.7925 18.3301 11.6517 18.4091 11.3691H18.6405V13.6997H18.4091C18.3301 13.4091 18.1712 13.2651 17.9285 13.2651H14.1264V15.808H20.136C20.3675 15.808 20.5339 15.6656 20.632 15.3813H20.832V17.7803ZM31.5013 10.8453C31.5013 11.3419 31.2971 11.6784 30.8869 11.8517C30.5989 11.9733 30.1243 12.032 29.4581 12.032H26.3216V9.62987H29.4581C30.1349 9.62987 30.6155 9.69227 30.904 9.8128C31.304 9.9968 31.5013 10.3408 31.5013 10.8453ZM34.0453 17.0613C33.7595 17.0437 33.5013 16.9088 33.2837 16.6571C33.1165 16.4397 32.9557 16.2173 32.8016 15.9904L30.9904 13.4693C32.6843 13.2085 33.5312 12.3344 33.5312 10.8453C33.5312 9.8352 33.2043 9.12107 32.5525 8.70187C31.9648 8.32 31.0123 8.128 29.6949 8.128H23.8827V8.35147C24.1707 8.42827 24.3136 8.5904 24.3136 8.83414V16.5792C24.3136 16.8048 24.1707 16.9659 23.8827 17.0613V17.2709H26.7728V17.0613C26.4725 16.9744 26.3227 16.8144 26.3227 16.5792V13.5488H28.8165L30.7083 16.2251C30.9189 16.5216 31.0229 16.7179 31.0229 16.8144C31.0229 16.944 30.9077 17.0267 30.6741 17.0613V17.2709H34.0453V17.0613ZM48.7803 17.2709H45.9056V17.0613C46.1883 16.9755 46.3323 16.8123 46.3323 16.5781V10.9483L42.7653 17.1403L39.3456 10.9483V16.5781C39.3456 16.8123 39.4949 16.9755 39.7893 17.0613V17.2709H37.0933V17.0613C37.3781 16.9653 37.5211 16.8053 37.5211 16.5781V8.832C37.5211 8.57974 37.3781 8.4192 37.0933 8.3504V8.128H40.6283V8.3504C40.4176 8.40267 40.3157 8.52054 40.3157 8.70614C40.3157 8.79147 40.3424 8.8976 40.4 9.0208L42.928 13.6288L45.4656 9.09494C45.5712 8.90294 45.624 8.74934 45.624 8.63734C45.624 8.45494 45.5163 8.3584 45.296 8.3504V8.128H48.7803V8.3504C48.4843 8.41974 48.3376 8.57974 48.3376 8.832V16.5781C48.3376 16.8059 48.4843 16.9653 48.7803 17.0613V17.2709ZM54.8784 17.2709H51.8293V17.0613C52.1339 16.9653 52.2837 16.8053 52.2837 16.5781V8.832C52.2837 8.57974 52.1344 8.4192 51.8293 8.3504V8.128H54.8784V8.3504C54.5637 8.41974 54.408 8.57974 54.408 8.832V16.5781C54.408 16.8123 54.5643 16.9755 54.8784 17.0613V17.2709ZM69.1083 17.2709H66.1323V17.0619C66.3264 17.0192 66.4203 16.9168 66.4203 16.76C66.4203 16.6928 66.3019 16.5403 66.0651 16.3035L60.7541 10.9829V16.5755C60.7541 16.8123 60.9061 16.9744 61.2107 17.0613V17.2709H58.4373V17.0613C58.7323 16.9653 58.8768 16.8053 58.8768 16.5781V8.832C58.8768 8.57974 58.7323 8.4192 58.4373 8.3504V8.128H61.6677V8.3504C61.4549 8.38454 61.3472 8.4784 61.3472 8.63734C61.3472 8.75787 61.4096 8.88054 61.5339 9.00267L66.7573 14.2405V8.832C66.7573 8.58827 66.6123 8.42774 66.3184 8.3504V8.128H69.1077V8.3504C68.816 8.42774 68.6693 8.58827 68.6693 8.832V16.5781C68.6693 16.8123 68.816 16.9755 69.1083 17.0613V17.2709ZM82.3173 8.35947C82.0395 8.44054 81.8987 8.60694 81.8987 8.8608V14.1739C81.8987 15.5099 81.5381 16.4459 80.8176 16.9792C80.0987 17.512 78.9061 17.7792 77.2437 17.7792C75.6128 17.7792 74.4437 17.5056 73.7291 16.9648C72.9808 16.4155 72.6069 15.4843 72.6069 14.1744V8.8608C72.6069 8.60694 72.456 8.44054 72.1547 8.35947V8.128H75.1008V8.36C74.7979 8.44 74.6496 8.60694 74.6496 8.86134V13.5776C74.6496 14.2176 74.7227 14.7152 74.8667 15.0672C75.0907 15.5925 75.5024 15.9211 76.1061 16.0571C76.4405 16.1301 76.8485 16.1659 77.328 16.1659C77.8293 16.1659 78.2491 16.1301 78.584 16.0571C79.5328 15.8501 80.0069 15.0507 80.0069 13.6581V8.8608C80.0069 8.60694 79.8613 8.44054 79.5712 8.35947V8.128H82.3179V8.35947H82.3173ZM94.0053 14.7531C94.0053 15.7211 93.5685 16.4811 92.6965 17.0309C91.8885 17.5296 90.8448 17.7787 89.5605 17.7787C88.2997 17.7787 87.0507 17.4853 85.8155 16.8997C85.5525 16.7744 85.3952 16.7109 85.3376 16.7109C85.2923 16.7109 85.2 16.7653 85.0645 16.8709L84.8587 16.7653L85.8827 14.4736L86.0869 14.5659C86.0869 15.0544 86.536 15.4597 87.4325 15.7797C88.1712 16.0549 88.8907 16.192 89.5947 16.192C90.1616 16.1925 90.6725 16.1029 91.1275 15.9253C91.6944 15.6939 91.9803 15.3781 91.9803 14.9803C91.9803 14.6053 91.7659 14.336 91.3328 14.1664C91.0715 14.0693 90.6395 13.9893 90.0379 13.9264L88.9488 13.8197C87.6981 13.6944 86.7621 13.4416 86.1371 13.0592C85.5131 12.6773 85.2 12.0256 85.2 11.1008C85.2 10.1509 85.5861 9.4128 86.36 8.88907C87.0853 8.38027 88.0688 8.128 89.3067 8.128C90.0219 8.128 90.6336 8.1952 91.1445 8.328C91.4277 8.40054 91.7136 8.488 91.9963 8.59467C92.2469 8.69334 92.5029 8.79307 92.7637 8.9008C93.1483 9.0528 93.3872 9.128 93.4789 9.128C93.5573 9.128 93.6725 9.08 93.8203 8.98294L94.0053 9.07467L92.8805 11.2731L92.6965 11.1669C92.6965 10.9989 92.6731 10.8789 92.6272 10.8075C92.5819 10.7365 92.4693 10.6432 92.2875 10.5275C91.4245 9.97654 90.4475 9.7008 89.3579 9.7008C87.8699 9.7008 87.1259 10.0597 87.1259 10.7819C87.1259 11.1008 87.2629 11.3317 87.5339 11.4752C87.6709 11.5461 87.8805 11.6069 88.1653 11.6603C88.496 11.7227 89.2085 11.8064 90.3093 11.9125C91.5029 12.0309 92.3979 12.2901 93.0037 12.7008C93.6725 13.1616 94.0053 13.8464 94.0053 14.7531ZM95.0597 6.60267L95.0389 6.61654C95.0253 6.75618 95.0212 6.8966 95.0267 7.0368L95.0768 7.02454C95.1413 6.94827 95.2139 6.8416 95.2661 6.75307L95.5456 6.7696V7.36587C95.5456 7.79147 95.5456 7.88427 95.5387 7.95147L95.3163 8.02294L95.2933 8.11467L95.7216 8.1136L96.1301 8.11467L96.1605 8.024L95.8955 7.95147C95.8912 7.89494 95.8811 7.8464 95.8811 7.29227V6.7696L96.1765 6.7552C96.2075 6.84587 96.2939 7.0112 96.3109 7.05014L96.3595 7.0368C96.3771 6.96747 96.4272 6.69227 96.4352 6.6176L96.4192 6.60267C96.3723 6.61014 96.2565 6.62667 96.1845 6.64H95.2779C95.2062 6.62107 95.1331 6.60858 95.0592 6.60267H95.0597ZM96.6251 6.7216C96.7973 6.77707 96.8032 6.77707 96.8389 6.83894C96.7931 7.2224 96.7099 7.8704 96.6901 7.95627L96.5381 8.03254L96.5152 8.12L96.7877 8.11894L97.0672 8.12L97.0832 8.03414L96.8725 7.9552C96.8779 7.85547 96.9061 7.2832 96.9365 6.9344H96.9419C97.2245 7.64054 97.3195 7.8576 97.4272 8.13174L97.496 8.11254C97.7451 7.50987 97.8949 7.18187 98.0053 6.92534H98.0181C98.0229 7.2688 98.0251 7.61014 98.0272 7.95627L97.8949 8.02934L97.8672 8.12L98.2245 8.11894L98.5579 8.12L98.5808 8.02934L98.3765 7.95467C98.3485 7.56761 98.3295 7.17995 98.3195 6.792L98.504 6.72587L98.5264 6.63627L97.9835 6.63147C97.9835 6.67147 97.9845 6.7056 97.9744 6.728C97.7856 7.1456 97.6309 7.448 97.5744 7.56587H97.5691C97.3717 7.1456 97.2192 6.84427 97.1701 6.72054C97.1621 6.70454 97.1659 6.68214 97.1659 6.63147L96.6603 6.6368L96.6251 6.7216Z" fill="#3D544E"/>
<path d="M3.59236 23.3531V22.4709L3.33049 22.4123L3.39022 22.2256C3.7222 22.1894 4.05576 22.1696 4.38969 22.1664C5.08089 22.1664 5.39129 22.3061 5.39129 22.648C5.39129 22.9621 5.10329 23.0907 4.81796 23.112V23.1445C5.34276 23.1819 5.53262 23.336 5.53262 23.6539C5.53262 24.1861 4.83876 24.264 4.23129 24.264C3.78329 24.264 3.48889 24.2544 3.28516 24.2544L3.34702 24.0597L3.58542 23.9584C3.59206 23.7567 3.59437 23.5549 3.59236 23.3531ZM4.21636 23.0325C4.47502 23.0325 4.73262 22.968 4.73262 22.6869C4.73262 22.4293 4.50862 22.3925 4.31289 22.3925H4.21582L4.21636 23.0325ZM4.21636 23.3136C4.21636 23.5685 4.22062 23.9099 4.22062 24.0165H4.29956C4.55342 24.0165 4.83289 23.9099 4.83289 23.6315C4.83289 23.3867 4.73689 23.2555 4.21582 23.2603L4.21636 23.3136ZM7.38436 22.52L7.12516 22.3883L7.19449 22.2016C7.35982 22.2016 7.52036 22.2069 7.68409 22.2069C7.85636 22.2069 8.02542 22.2016 8.19182 22.2016L8.14329 22.4021L7.96409 22.5195V22.9899C7.96409 23.2661 7.94969 23.3989 7.93102 23.7013H7.98969C8.19182 23.2715 8.38596 22.84 8.58489 22.4117L8.57582 22.2069H8.96622C9.15982 22.2069 9.35022 22.2016 9.53902 22.2016L9.48409 22.3835L9.27022 22.5147V23.1813C9.27022 23.5888 9.27342 23.8277 9.28942 23.928L9.56462 24.0581L9.50489 24.24C9.31876 24.24 9.12836 24.2357 8.93849 24.2357C8.76249 24.2357 8.59022 24.24 8.41476 24.24L8.46702 24.0587L8.66596 23.9397C8.67289 23.8731 8.68569 23.7493 8.68569 23.3989C8.68569 23.1808 8.70009 23.0059 8.71716 22.7019H8.67289C8.47822 23.1296 8.27982 23.5685 8.08196 23.9995L8.10009 24.2357H7.68409C7.48622 24.2357 7.28569 24.24 7.08836 24.24L7.14542 24.0587L7.36249 23.9397C7.38116 23.8453 7.38382 23.5323 7.38382 23.1664L7.38436 22.52ZM11.955 22.4133H11.9678C12.2766 22.2117 12.4212 22.1467 12.515 22.1467C12.8846 22.1467 13.3945 22.5056 13.3945 23.1269C13.3945 23.9552 12.7492 24.2917 12.3284 24.2917C12.266 24.2917 12.1614 24.2597 11.9758 24.1637L11.9678 24.1776C11.9678 24.4283 11.9758 24.7291 11.9849 24.8528L12.4046 24.9829L12.3684 25.1739C12.1358 25.1739 11.898 25.1696 11.6644 25.1696C11.4617 25.1696 11.259 25.1739 11.0606 25.1739L11.1124 24.9765L11.3209 24.8667C11.3257 24.7851 11.338 24.3824 11.338 23.7243V22.56L11.0868 22.4053L11.1305 22.2512C11.1838 22.2379 11.7065 22.1461 11.9732 22.1461L11.955 22.4133ZM11.978 23.9296C12.0343 23.9574 12.0965 23.9713 12.1593 23.9701C12.4537 23.9701 12.746 23.7088 12.746 23.2395C12.746 22.8059 12.4585 22.5579 12.1732 22.5579C12.1198 22.5579 12.0718 22.5664 11.978 22.6075V23.9296ZM16.1785 22.1472C16.8478 22.1472 17.2649 22.5739 17.2649 23.1941C17.2649 23.8592 16.8185 24.2901 16.1716 24.2901C15.5876 24.2901 15.0782 23.9008 15.0782 23.2352C15.0782 22.5408 15.6222 22.1472 16.1764 22.1472H16.1785ZM16.1497 22.3835C15.8878 22.3835 15.7817 22.7925 15.7817 23.1557C15.7817 23.5499 15.8916 24.0581 16.2052 24.0581C16.5118 24.0581 16.5625 23.5739 16.5625 23.2555C16.5625 22.8912 16.4585 22.3835 16.1545 22.3835H16.1497ZM20.1657 22.1472C20.7022 22.1472 21.1214 22.4832 21.1214 23.1648C21.1214 23.9349 20.5977 24.2955 20.0473 24.2955C19.3742 24.2955 18.9902 23.7781 18.995 22.9195C18.995 22.3061 19.203 21.8197 19.5593 21.4992C19.77 21.2997 20.0686 21.1451 20.3908 21.1451C20.7476 21.1451 20.9198 21.1397 21.0382 21.0453L21.1086 21.1173C21.0329 21.3312 20.9337 21.4944 20.7886 21.6032C20.7246 21.6533 20.6548 21.6613 20.5641 21.6613C20.4009 21.6613 20.3001 21.6389 20.035 21.6389C19.643 21.6389 19.4564 21.88 19.4564 22.3216C19.4564 22.4139 19.4665 22.448 19.4729 22.4933H19.4846C19.5945 22.3349 19.8366 22.1467 20.1614 22.1467L20.1657 22.1472ZM20.0478 22.4117C19.754 22.4117 19.6894 22.7925 19.6894 23.1925C19.6894 23.7061 19.8334 24.0581 20.0862 24.0581C20.2836 24.0581 20.4334 23.8827 20.4393 23.2048C20.4393 22.6704 20.2718 22.4117 20.0516 22.4117H20.0478ZM24.2361 23.0368V22.4981L24.0574 22.3984L24.1097 22.2021C24.2697 22.2021 24.4286 22.2075 24.5833 22.2075C24.7737 22.2075 24.9582 22.2021 25.1422 22.2021L25.09 22.3984L24.875 22.4987V23.1824C24.875 23.5941 24.875 23.8171 24.8782 23.928L25.1652 24.0581L25.1118 24.24C24.9182 24.24 24.7252 24.2357 24.5305 24.2357C24.3524 24.2357 24.1758 24.24 23.9998 24.24L24.0574 24.0587L24.2324 23.9397C24.2324 23.8357 24.2361 23.6304 24.2361 23.2971C24.0532 23.3291 23.8446 23.3291 23.6244 23.3291C23.6244 23.6245 23.6281 23.8213 23.6281 23.9397L23.8094 24.0581L23.7486 24.24C23.5886 24.24 23.4356 24.2357 23.2745 24.2357C23.0814 24.2357 22.8873 24.24 22.6974 24.24L22.7497 24.0587L22.9849 23.928C22.9849 23.8277 22.9902 23.5339 22.9902 23.168V22.5024L22.722 22.3835L22.7982 22.2021C22.9614 22.2021 23.1252 22.2075 23.2889 22.2075C23.4606 22.2075 23.6329 22.2021 23.8046 22.2021L23.7534 22.3984L23.6244 22.5024V23.0368H24.2361ZM26.9694 22.5195L26.7086 22.3883L26.779 22.2016C26.9438 22.2016 27.107 22.2069 27.2713 22.2069C27.443 22.2069 27.6126 22.2016 27.7806 22.2016L27.7321 22.4021L27.5486 22.5195V22.9899C27.5486 23.2661 27.5364 23.3989 27.5177 23.7013H27.5764C27.7806 23.2715 27.9742 22.84 28.1748 22.4117L28.1652 22.2069H28.5534C28.7486 22.2069 28.9385 22.2016 29.1294 22.2016L29.0772 22.3835L28.859 22.5147V23.1813C28.859 23.5888 28.8644 23.8277 28.883 23.928L29.155 24.0581L29.0921 24.24C28.9086 24.24 28.7172 24.2357 28.5284 24.2357C28.3492 24.2357 28.178 24.24 27.9998 24.24L28.0532 24.0587L28.251 23.9397C28.2622 23.8731 28.2745 23.7493 28.2745 23.3989C28.2745 23.1808 28.2884 23.0059 28.3065 22.7019H28.2622L27.6708 24L27.6868 24.2363H27.2708C27.0713 24.2363 26.8729 24.2405 26.6734 24.2405L26.7305 24.0592L26.9481 23.9403C26.9641 23.8459 26.9694 23.5328 26.9694 23.1669V22.5195ZM30.9492 22.5136L30.6932 22.3835L30.7593 22.2021C30.9193 22.2021 31.0814 22.2075 31.2366 22.2075C31.4313 22.2075 31.627 22.2021 31.8201 22.2021L31.7668 22.3979L31.571 22.5136V23.0805C31.6969 23.0523 31.8025 23.0139 31.8868 22.9259C32.0062 22.8005 32.0841 22.7008 32.2169 22.4773L32.2564 22.2021C32.3577 22.2021 32.4633 22.2075 32.5732 22.2075C32.7118 22.2075 32.85 22.2021 32.9806 22.2021L32.9102 22.3979L32.5652 22.5408C32.3486 22.7541 32.2393 22.8725 32.1822 22.9307V22.9509C32.2564 23.0768 32.323 23.1941 32.3849 23.2891C32.5438 23.5461 32.8084 23.9541 32.9945 24.2085L32.9156 24.2901C32.5652 24.2901 32.3156 24.272 32.1257 23.9952C32.0548 23.8907 31.9337 23.7141 31.7753 23.4592C31.674 23.2912 31.6569 23.2715 31.571 23.2763C31.571 23.5237 31.571 23.8416 31.5769 23.9232L31.8457 24.0533L31.7838 24.2347C31.5993 24.2347 31.4121 24.2304 31.2366 24.2304C31.0425 24.2304 30.8484 24.2352 30.6542 24.2352L30.7102 24.0539L30.9449 23.9232C30.9449 23.8235 30.9492 23.5339 30.9492 23.1456V22.5136ZM63.6798 22.52L63.4164 22.3883L63.4878 22.2016C63.6553 22.2016 63.8169 22.2069 63.9796 22.2069C64.1513 22.2069 64.3209 22.2016 64.4889 22.2016L64.4398 22.4021L64.2585 22.5195V22.9899C64.2585 23.2661 64.2452 23.3989 64.2276 23.7013H64.2862C64.4889 23.2715 64.6841 22.84 64.8835 22.4117L64.8729 22.2069H65.2633C65.4596 22.2069 65.6505 22.2016 65.8393 22.2016L65.7859 22.3835L65.5678 22.5147V23.1813C65.5678 23.5888 65.5737 23.8277 65.5908 23.928L65.8644 24.0581L65.8025 24.24C65.6174 24.24 65.4259 24.2357 65.2388 24.2357C65.0606 24.2357 64.8867 24.24 64.7113 24.24L64.762 24.0587L64.963 23.9397C64.9721 23.8731 64.9854 23.7493 64.9854 23.3989C64.9854 23.1808 64.9961 23.0059 65.0169 22.7019H64.9721C64.7753 23.1296 64.5774 23.5685 64.3764 23.9995L64.3966 24.2357H63.9796C63.7822 24.2357 63.5817 24.24 63.3828 24.24L63.4404 24.0587L63.6569 23.9397C63.6772 23.8453 63.6804 23.5323 63.6804 23.1664L63.6798 22.52ZM68.562 22.792H68.5726C68.6457 22.6869 68.6969 22.624 68.7561 22.5104C68.7843 22.4571 68.7977 22.3344 68.794 22.2021C68.8921 22.2021 68.9939 22.2075 69.091 22.2075C69.219 22.2075 69.3513 22.2021 69.4921 22.2021L69.4473 22.3883C69.1955 22.4779 69.067 22.552 69.0105 22.6293C68.9641 22.6837 68.8643 22.7829 68.6937 23.0117C68.8014 23.2304 69.091 23.6864 69.1401 23.7675C69.2185 23.9045 69.299 23.9275 69.3876 23.9637L69.6196 24.0581L69.5678 24.2357C69.5188 24.2357 69.1731 24.2587 68.6425 24.2587C68.5278 23.9723 68.4473 23.8453 68.2889 23.5632H68.2782C68.147 23.7627 68.1022 23.8448 68.0718 23.9003C68.0414 23.9723 68.051 23.9899 68.155 24.0923L68.1433 24.24C68.0099 24.24 67.8718 24.2357 67.7348 24.2357C67.594 24.2357 67.4468 24.24 67.3028 24.24L67.3417 24.0693L67.5806 23.9536C67.6548 23.9179 67.7412 23.8619 67.7892 23.808C67.8473 23.736 67.9524 23.6267 68.1636 23.3216C67.8414 22.744 67.77 22.6293 67.7299 22.5664C67.6974 22.5024 67.5593 22.4528 67.338 22.3835L67.3913 22.2021C67.5806 22.2021 67.7657 22.2075 67.9524 22.2075C68.0804 22.2075 68.2057 22.2021 68.3235 22.2021L68.338 22.3792L68.562 22.792ZM88.9193 23.2576C88.9145 23.2843 88.9145 23.2896 88.9145 23.3216C88.9145 23.7056 89.1838 23.9627 89.5273 23.9627C89.5619 23.9627 89.5962 23.9573 89.6291 23.9467C89.7747 23.8277 89.9902 23.6779 90.091 23.6272L90.1273 23.7275C90.0964 23.9045 89.8542 24.1451 89.7705 24.1984C89.6916 24.2261 89.4788 24.2901 89.2953 24.2901C88.6649 24.2901 88.2553 23.8901 88.2553 23.2395C88.2553 22.6229 88.7188 22.1472 89.2841 22.1472C89.7881 22.1472 90.1598 22.4645 90.1598 23.0032C90.1598 23.0907 90.1422 23.1456 90.1107 23.1616C90.0755 23.1899 89.9027 23.2576 89.6318 23.2576H88.9193ZM89.5086 23.0117C89.5177 22.9739 89.531 22.9189 89.531 22.8736C89.531 22.5749 89.4291 22.3883 89.2579 22.3883C89.0409 22.3883 88.915 22.7509 88.915 23.0117H89.5086ZM91.9886 22.52L91.7289 22.3883L91.7977 22.2016C91.9614 22.2016 92.1273 22.2069 92.2884 22.2069C92.4606 22.2069 92.6297 22.2016 92.7971 22.2016L92.7465 22.4021L92.5683 22.5195V22.9899C92.5683 23.2661 92.5545 23.3989 92.5379 23.7013H92.5956C92.7971 23.2709 92.9908 22.84 93.1886 22.4117L93.1806 22.2069H93.5694C93.7635 22.2069 93.9534 22.2016 94.1422 22.2016L94.0894 22.3829L93.8755 22.5147V23.1813C93.8755 23.5888 93.8793 23.8277 93.8969 23.928L94.1705 24.0581L94.1091 24.24C93.9214 24.24 93.7326 24.2357 93.5422 24.2357C93.3678 24.2357 93.1945 24.24 93.0179 24.24L93.0707 24.0587L93.2713 23.9413C93.2782 23.8725 93.291 23.7493 93.291 23.3989C93.291 23.1808 93.3033 23.0059 93.323 22.7019H93.2782C93.0841 23.1296 92.8851 23.5685 92.6862 24L92.7011 24.2357H92.2884C92.0921 24.2357 91.8905 24.24 91.6937 24.24L91.7508 24.0587L91.9657 23.9413C91.9833 23.8464 91.9886 23.5323 91.9886 23.1659V22.52ZM93.5566 21.1803L93.6131 21.2085C93.5262 21.6608 93.2825 21.8859 92.89 21.8859C92.5321 21.8859 92.3235 21.6421 92.3235 21.4139C92.3235 21.3819 92.3289 21.3504 92.3428 21.3285C92.3785 21.2773 92.5502 21.1861 92.6324 21.1803L92.6654 21.2085C92.6814 21.3872 92.787 21.5755 93.0089 21.5755C93.2201 21.5755 93.3033 21.4064 93.3545 21.2683L93.5566 21.1803ZM38.0761 22.1163L38.099 22.1472C38.099 22.2485 38.1092 22.2939 38.1278 22.3579C38.2254 22.6192 38.3892 23.0117 38.7582 23.9637L39.059 23.9947C38.9966 24.3717 38.9246 24.7851 38.8777 24.9403L38.6793 25.048C38.6366 24.8544 38.5881 24.5584 38.5246 24.2357H37.2409C37.1635 24.481 37.081 24.7246 36.9934 24.9664L36.7982 25.0384C36.7801 24.7664 36.7374 24.2533 36.7342 23.9899L36.9534 23.9637C37.0366 23.7627 37.3374 23.0789 37.5801 22.4427C37.5866 22.4193 37.5866 22.3946 37.5801 22.3712L37.5668 22.3099L38.0761 22.1163ZM37.7033 23.9691C37.875 23.9691 37.994 23.9637 38.0692 23.9349C37.941 23.5696 37.8176 23.2027 37.699 22.8341H37.6814C37.5753 23.1792 37.346 23.7952 37.306 23.9349C37.3753 23.9637 37.5006 23.9691 37.699 23.9691H37.7033ZM41.2782 23.2576C41.274 23.2843 41.274 23.2896 41.274 23.3216C41.274 23.7056 41.5433 23.9643 41.8862 23.9643C41.9214 23.9638 41.9563 23.9578 41.9897 23.9467C42.1353 23.8277 42.3518 23.6779 42.4521 23.6277L42.4873 23.7275C42.4574 23.9051 42.2132 24.1456 42.13 24.1984C42.0494 24.2261 41.8382 24.2901 41.6596 24.2901C41.026 24.2901 40.6153 23.8901 40.6153 23.2395C40.6153 22.6229 41.0793 22.1472 41.6436 22.1472C42.1465 22.1472 42.5182 22.4645 42.5182 23.0032C42.5182 23.0907 42.5017 23.1456 42.4702 23.1621C42.4345 23.1899 42.2622 23.2581 41.9913 23.2581L41.2782 23.2576ZM41.874 23.0117C41.882 22.9739 41.8969 22.9189 41.8969 22.8741C41.8969 22.5755 41.7929 22.3883 41.6233 22.3883C41.4014 22.3883 41.274 22.7509 41.274 23.0117H41.874ZM44.9444 22.4139H44.9566C45.2686 22.2112 45.4137 22.1472 45.506 22.1472C45.8745 22.1472 46.3886 22.5056 46.3886 23.1269C46.3886 23.9552 45.7374 24.2917 45.3214 24.2917C45.2574 24.2917 45.1518 24.2597 44.9678 24.1637L44.9566 24.1776C44.9566 24.4283 44.9678 24.7291 44.9753 24.8528L45.394 24.9829L45.3609 25.1739C45.1241 25.1739 44.8868 25.1696 44.6516 25.1696C44.4489 25.1696 44.2478 25.1739 44.0467 25.1739L44.1012 24.9765L44.3076 24.8667C44.3145 24.7851 44.3284 24.3824 44.3284 23.7243V22.56L44.0777 22.4053L44.1198 22.2512C44.171 22.2379 44.6974 22.1461 44.9625 22.1461L44.9444 22.4139ZM44.9678 23.9296C45.0224 23.9575 45.0831 23.9714 45.1444 23.9701C45.4356 23.9701 45.73 23.7088 45.73 23.2395C45.73 22.8059 45.4457 22.5579 45.1598 22.5579C45.0927 22.5586 45.0269 22.5756 44.9678 22.6075V23.9296ZM48.731 23.2576C48.7257 23.2843 48.7257 23.2896 48.7257 23.3216C48.7257 23.7056 48.995 23.9643 49.3401 23.9643C49.3746 23.964 49.4088 23.9581 49.4414 23.9467C49.5865 23.8277 49.8041 23.6779 49.9054 23.6277L49.9406 23.7275C49.9102 23.9051 49.6665 24.1456 49.5844 24.1984C49.5033 24.2261 49.2916 24.2901 49.1097 24.2901C48.4793 24.2901 48.0697 23.8901 48.0697 23.2395C48.0697 22.6229 48.5326 22.1472 49.0964 22.1472C49.6009 22.1472 49.97 22.4645 49.97 23.0032C49.97 23.0907 49.9534 23.1456 49.9225 23.1621C49.8878 23.1899 49.7161 23.2581 49.4468 23.2581L48.731 23.2576ZM49.3284 23.0117C49.3348 22.9739 49.3497 22.9189 49.3497 22.8741C49.3497 22.5755 49.2473 22.3883 49.0745 22.3883C48.8548 22.3883 48.7257 22.7509 48.7257 23.0117H49.3284ZM51.8014 22.4709L51.5358 22.4123L51.5982 22.2256C51.9295 22.1893 52.2623 22.1696 52.5956 22.1664C53.2878 22.1664 53.594 22.3061 53.594 22.648C53.594 22.9616 53.3081 23.0907 53.0196 23.112V23.1445C53.5465 23.1819 53.7348 23.336 53.7348 23.6539C53.7348 24.1861 53.0436 24.264 52.4361 24.264C51.9902 24.264 51.6948 24.2533 51.4921 24.2533L51.5545 24.0597L51.7929 23.9584C51.7966 23.8997 51.8014 23.6987 51.8014 23.3525V22.4709ZM52.4238 23.0325C52.6836 23.0325 52.9465 22.968 52.9465 22.6869C52.9465 22.4293 52.7188 22.3925 52.522 22.3925H52.4238V23.0325ZM52.4238 23.3136C52.4238 23.5685 52.4292 23.9099 52.4292 24.0165H52.5102C52.7636 24.0165 53.0473 23.9099 53.0473 23.6315C53.0473 23.3867 52.9508 23.2555 52.4233 23.2603L52.4238 23.3136ZM57.6041 23.2197C57.6041 23.5387 57.6041 23.7403 57.6068 23.9397L57.8734 24.0581L57.8201 24.24C57.6388 24.24 57.4574 24.2357 57.2718 24.2357C57.083 24.2357 56.8915 24.24 56.6985 24.24L56.7454 24.0587L56.978 23.9397C56.978 23.8171 56.9806 23.5888 56.9806 23.3499C56.8484 23.3499 56.7513 23.392 56.667 23.5328C56.5627 23.7162 56.4548 23.8976 56.3433 24.0768C56.1955 24.2357 55.8894 24.3125 55.4963 24.2955L55.4441 24.1909C55.6249 24.0267 55.9134 23.6683 55.9748 23.5739C56.075 23.4192 56.2142 23.2971 56.3758 23.2731V23.2603C55.8094 23.2091 55.7513 22.9189 55.7513 22.7392C55.7513 22.3472 56.0878 22.1664 56.9022 22.1664C57.2542 22.1664 57.6489 22.1989 57.8905 22.2213L57.8457 22.3984L57.6041 22.5141V23.2197ZM56.986 22.3877H56.9241C56.6254 22.3877 56.4345 22.4885 56.4345 22.7515C56.4345 22.984 56.6073 23.1424 56.8932 23.1424H56.986V22.3877ZM60.9486 23.0368V22.4981L60.7662 22.3984L60.8201 22.2021C60.978 22.2021 61.1364 22.2075 61.2932 22.2075C61.4836 22.2075 61.6681 22.2021 61.8532 22.2021L61.7998 22.3984L61.5838 22.4987V23.1824C61.5838 23.5941 61.5838 23.8171 61.5902 23.928L61.8755 24.0581L61.8212 24.24C61.6276 24.24 61.4339 24.2357 61.2388 24.2357C61.0644 24.2357 60.8852 24.24 60.7081 24.24L60.7662 24.0587L60.9438 23.9397C60.9438 23.8357 60.9492 23.6304 60.9492 23.2971C60.7625 23.3291 60.5566 23.3291 60.3326 23.3291C60.3326 23.6245 60.338 23.8213 60.338 23.9397L60.5193 24.0581L60.459 24.24C60.2974 24.24 60.1454 24.2357 59.9844 24.2357C59.7902 24.2357 59.5956 24.24 59.4084 24.24L59.4595 24.0587L59.6942 23.928C59.6942 23.8277 59.698 23.5339 59.698 23.168V22.5024L59.434 22.3835L59.5076 22.2021C59.6718 22.2021 59.835 22.2075 59.9977 22.2075C60.171 22.2075 60.3428 22.2021 60.5156 22.2021L60.4627 22.3984L60.3326 22.5024V23.0368H60.9486ZM74.539 22.1163L74.5603 22.1472C74.5603 22.2485 74.5742 22.2939 74.5918 22.3579C74.6873 22.6192 74.85 23.0117 75.2222 23.9637L75.5209 23.9947C75.4569 24.3717 75.3822 24.7851 75.3406 24.9403L75.1433 25.048C75.0979 24.8544 75.0489 24.5584 74.9881 24.2357H73.706C73.6287 24.4811 73.546 24.7247 73.4579 24.9664L73.2649 25.0384C73.2489 24.7664 73.202 24.2533 73.1977 23.9899L73.4185 23.9637C73.5028 23.7627 73.8025 23.0789 74.0435 22.4427C74.0506 22.4194 74.0506 22.3945 74.0435 22.3712L74.0318 22.3099L74.539 22.1163ZM74.1694 23.9691C74.3411 23.9691 74.4627 23.9637 74.5363 23.9349C74.4068 23.5702 74.2836 23.2032 74.1668 22.8341H74.1497C74.0409 23.1792 73.8137 23.7952 73.7747 23.9349C73.8441 23.9637 73.9678 23.9691 74.1668 23.9691H74.1694ZM77.3198 22.4709L77.0553 22.4123L77.1182 22.2256C77.4495 22.1894 77.7823 22.1696 78.1155 22.1664C78.8089 22.1664 79.1166 22.3061 79.1166 22.648C79.1166 22.9616 78.8302 23.0907 78.5433 23.112V23.1445C79.0686 23.1819 79.2569 23.336 79.2569 23.6539C79.2569 24.1861 78.5668 24.264 77.9556 24.264C77.5102 24.264 77.2153 24.2533 77.0131 24.2533L77.074 24.0597L77.3118 23.9584C77.3161 23.8997 77.3198 23.6987 77.3198 23.3525V22.4709ZM77.9449 23.0325C78.2046 23.0325 78.4638 22.968 78.4638 22.6869C78.4638 22.4293 78.2398 22.3925 78.0409 22.3925H77.9449V23.0325ZM77.9449 23.3136C77.9449 23.5685 77.9486 23.9099 77.9486 24.0165H78.027C78.2798 24.0165 78.5614 23.9099 78.5614 23.6315C78.5614 23.3867 78.4638 23.2555 77.9449 23.2603V23.3136ZM81.5348 23.2576C81.5305 23.2843 81.5305 23.2896 81.5305 23.3216C81.5305 23.7056 81.8003 23.9627 82.1443 23.9627C82.1788 23.9629 82.213 23.9575 82.2457 23.9467C82.3929 23.8277 82.6094 23.6779 82.7092 23.6277L82.7438 23.7275C82.7118 23.9045 82.4718 24.1456 82.3886 24.1984C82.3075 24.2261 82.0958 24.2901 81.915 24.2901C81.2814 24.2901 80.874 23.8901 80.874 23.2395C80.874 22.6229 81.3369 22.1472 81.9006 22.1472C82.4062 22.1472 82.7769 22.4645 82.7769 23.0032C82.7769 23.0907 82.7582 23.1456 82.7268 23.1621C82.6926 23.1899 82.5198 23.2581 82.2489 23.2581L81.5348 23.2576ZM82.1321 23.0117C82.1401 22.9739 82.1534 22.9189 82.1534 22.8736C82.1534 22.5749 82.0526 22.3883 81.8803 22.3883C81.6574 22.3883 81.5305 22.7509 81.5305 23.0117H82.1321ZM85.2014 22.4139H85.2158C85.5241 22.2123 85.6708 22.1472 85.7635 22.1472C86.1353 22.1472 86.6457 22.5056 86.6457 23.1269C86.6457 23.9552 85.9977 24.2917 85.5785 24.2917C85.5145 24.2917 85.41 24.2581 85.2254 24.1637L85.2158 24.1776C85.2158 24.4283 85.2254 24.7291 85.2324 24.8528L85.6526 24.9829L85.6174 25.1739C85.3854 25.1739 85.1438 25.1696 84.9102 25.1696C84.7076 25.1696 84.5049 25.1739 84.3054 25.1739L84.3577 24.9765L84.5662 24.8667C84.571 24.7851 84.5833 24.3824 84.5833 23.7243V22.5595L84.3326 22.4064L84.3769 22.2517C84.4276 22.2384 84.9539 22.1467 85.2196 22.1467L85.2014 22.4139ZM85.2254 23.9301C85.2809 23.9572 85.3419 23.9709 85.4035 23.9701C85.6969 23.9701 85.9934 23.7088 85.9934 23.2395C85.9934 22.8059 85.7054 22.5579 85.4185 22.5579C85.3652 22.5579 85.3182 22.5664 85.2254 22.6075V23.9301ZM54.1198 22.3984C54.3012 22.2384 54.4883 22.0021 54.4883 21.776C54.4883 21.68 54.4804 21.6256 54.4382 21.5723L54.2073 21.4496V21.3589L54.6478 21.0955H54.739C54.8062 21.1221 54.9588 21.2677 54.9651 21.5723C54.9774 21.9253 54.7092 22.3163 54.2254 22.5781L54.1198 22.3984Z" fill="#3D544E"/>
<path d="M103.504 28.7061L102.501 31.9979L114.382 30.0299L115.682 24.9653C114.863 25.3909 113.529 25.9333 112.761 26.1883L112.318 28.4363L104.512 30.1616L104.96 28.4245C104.388 28.5717 103.933 28.6699 103.504 28.7061" fill="#AE5C2E"/>
<path d="M103.369 27.576C99.1773 28.3483 96.9565 27.6491 96.6722 27.5803C96.4845 27.5328 95.2685 26.9669 96.8002 27.0459C101.352 27.2779 106.998 25.8768 110.98 23.6507C114.986 21.4107 120.518 18.7984 124.055 11.7419C122.176 11.7915 119.393 12.1568 117.333 12.7445C117.841 11.88 118.282 10.9739 118.723 10.0656C122.007 9.2752 125.905 8.70347 129.066 8.63467C123.987 20.7552 112.975 25.8091 103.369 27.576ZM105.625 15.8736C105.538 16.5499 105.403 17.4827 105.261 18.0539C104.279 18.7366 103.348 19.49 102.475 20.3083C101.986 20.7685 98.701 24.1797 99.4989 24.7019C100.085 25.0837 101.493 24.7776 102.114 24.6443C102.901 24.4741 103.673 24.2423 104.423 23.9509C104.88 23.7728 100.924 25.7584 99.5229 25.5419C98.3213 25.3552 98.2786 24.5979 98.5853 23.7701C99.2968 21.8405 101.112 19.7557 102.609 18.3845C103.688 17.3973 104.42 16.7019 105.625 15.8736Z" fill="#72933E"/>
<path d="M105.212 23.5488C107.307 22.3712 109.073 20.6597 110.508 18.6448C113.497 14.4421 115.191 8.92907 116.839 4.33013L109.481 5.83947C109.481 5.83947 108.401 14.0245 107.237 17.8053C106.072 21.5867 105.066 22.248 105.275 21.6192C105.485 20.9899 106.225 18.5173 106.643 15.0016C107.062 11.4848 107.695 4.12747 107.695 4.12747L121.951 0C121.951 0 120.504 4.11093 118.423 8.72373C115.888 14.3365 111.6 21.8032 105.653 24.6363C104.01 25.4176 102.227 25.9856 100.338 25.8949C99.798 25.8683 99.2188 25.8267 98.8834 25.4859C98.7436 25.3472 98.6007 25.1392 98.5762 24.6912C99.2663 26.1813 104.001 24.2272 105.212 23.5488Z" fill="#AE5C2E"/>
<path d="M108.235 17.2704C109.035 13.928 109.66 10.7211 110.132 7.1248L114.841 6.096C114.841 6.096 112.238 7.1856 111.364 8.95253C110.518 10.6539 108.235 17.2704 108.235 17.2704Z" fill="#AE5C2E"/>
</mask>
<g mask="url(#mask0)">
<rect x="-18.7065" y="-29.6736" width="166.467" height="90.6667" fill="#9A9A9A"/>
</g>
</svg>
