<svg width="129" height="32" viewBox="0 0 129 32" fill="none" xmlns="http://www.w3.org/2000/svg">
<mask id="mask0" mask-type="alpha" maskUnits="userSpaceOnUse" x="0" y="0" width="129" height="32">
<g clip-path="url(#clip0)">
<path fill-rule="evenodd" clip-rule="evenodd" d="M114.671 17.3624H113.916V31.9264H116.798C117.676 30.8566 118.323 29.6167 118.698 28.2848C119.071 26.9567 119.163 25.5652 118.968 24.1995C118.773 22.8338 118.295 21.5239 117.564 20.3536C116.829 19.1724 115.86 18.1542 114.717 17.3616H114.671V17.3624ZM118.885 31.9264H128.783V25.856C126.704 25.7713 124.646 26.3059 122.872 27.392C121.114 28.4666 119.724 30.0494 118.885 31.9312V31.9256V31.9264ZM117.68 17.3616C118.511 19.5313 120.059 21.351 122.068 22.5176C124.097 23.6988 126.463 24.1674 128.788 23.8488V17.3624H117.68V17.3616Z" fill="#E0013F"/>
<path fill-rule="evenodd" clip-rule="evenodd" d="M121.663 28.26C123.199 29.1382 124.478 30.4016 125.376 31.9256H128.789V25.8568C126.199 25.7488 123.661 26.607 121.669 28.2648L121.663 28.2592V28.26ZM113.898 25.4392V31.9144H116.781C117.718 30.7719 118.39 29.4367 118.751 28.004C119.11 26.576 119.145 25.0888 118.856 23.6456C117.392 24.6521 115.696 25.2676 113.927 25.4336L113.898 25.4392ZM125.042 17.356H117.68C118.18 18.6697 118.949 19.8643 119.938 20.8632C120.935 21.8707 122.129 22.6623 123.445 23.1888C123.359 21.1262 123.917 19.088 125.042 17.3568V17.356Z" fill="#98014C"/>
<path fill-rule="evenodd" clip-rule="evenodd" d="M107.183 24.644C109.133 22.6331 110.47 20.1068 111.034 17.3624H96.1777V31.9264H111.034C110.462 29.1785 109.115 26.6517 107.154 24.644H107.183Z" fill="#67B2CA"/>
<path fill-rule="evenodd" clip-rule="evenodd" d="M106.825 17.3624H96.1777V20.0184C98.7155 20.0145 101.215 20.6383 103.453 21.8344C104.804 20.5296 105.942 19.0205 106.825 17.3624ZM103.453 27.4528C101.215 28.6496 98.7155 29.2735 96.1777 29.2688V31.9264H106.825C105.942 30.2678 104.804 28.7582 103.453 27.4528Z" fill="#B3E2D8"/>
<path fill-rule="evenodd" clip-rule="evenodd" d="M96.1775 20.0184V23.1264C97.3974 23.5091 98.5741 24.0177 99.6887 24.644C101.061 23.8704 102.328 22.9225 103.458 21.824C101.22 20.6278 98.7208 20.004 96.1831 20.008L96.1775 20.0184ZM96.1775 26.1616V29.2696C98.7153 29.2744 101.215 28.6505 103.453 27.4536C102.323 26.3549 101.055 25.4068 99.6823 24.6328C98.5681 25.2591 97.3916 25.7675 96.1719 26.1496L96.1775 26.1616Z" fill="#05759F"/>
<path fill-rule="evenodd" clip-rule="evenodd" d="M113.916 14.576H128.8V8.28643H113.916V14.5752V14.576ZM113.916 0.0112305V6.92643H128.8V0.0224305L113.916 0.0112305Z" fill="#A6D514"/>
<path fill-rule="evenodd" clip-rule="evenodd" d="M113.916 12.5952H128.8V9.6288H113.916V12.5952ZM113.916 0.0223999V5.184H128.8V0.0223999H113.916Z" fill="#40A629"/>
<path fill-rule="evenodd" clip-rule="evenodd" d="M103.879 10.1816C102.911 9.59826 102.08 8.81096 101.447 7.8744C101.272 7.18004 101.288 6.45163 101.493 5.7656C101.699 5.076 102.085 4.45362 102.611 3.9624C103.141 3.46617 103.792 3.11659 104.499 2.948C105.21 2.77808 105.952 2.79406 106.655 2.9944C107.356 3.1944 107.991 3.572 108.497 4.0888C109 4.60238 109.358 5.24082 109.532 5.9384C109.706 6.63265 109.689 7.36076 109.484 8.0464C109.277 8.73599 108.891 9.35811 108.364 9.8488C107.688 10.2871 106.914 10.5525 106.111 10.6216C107.055 10.6999 108.004 10.5429 108.873 10.1648C109.736 9.78991 110.491 9.20393 111.068 8.4608V0H96.1777V14.576H111.034V10.74C109.875 11.2104 108.622 11.4044 107.376 11.3065C106.129 11.2086 104.922 10.8215 103.851 10.176L103.879 10.1816Z" fill="#FFB300"/>
<path fill-rule="evenodd" clip-rule="evenodd" d="M100.772 6.67839C100.453 5.50683 100.462 4.27006 100.798 3.10319C101.136 1.9305 101.787 0.871755 102.68 0.0399934H101.026C100.482 1.05479 100.177 2.18001 100.133 3.33034C100.089 4.48067 100.308 5.6259 100.772 6.67919V6.67839ZM108.843 14.6032H111.034V13.1312C110.372 13.7098 109.635 14.1956 108.843 14.5752V14.6032ZM97.0601 0.0231934H96.1777V1.26399L96.2985 1.06719C96.5289 0.703193 96.7833 0.355193 97.0601 0.0231934ZM96.1777 10.8536V14.576H100.283C100.001 14.4401 99.7257 14.2914 99.4577 14.1304C98.111 13.3204 96.9844 12.1911 96.1777 10.8424V10.8536Z" fill="#FF8000"/>
<path fill-rule="evenodd" clip-rule="evenodd" d="M103.88 10.1816C102.191 9.16741 100.952 7.54848 100.414 5.65362C99.8843 3.76958 100.104 1.75392 101.026 0.0280151H98.7551C97.7136 1.65905 97.2958 3.61116 97.5783 5.52562C97.8661 7.44595 98.8314 9.19995 100.3 10.4704C101.786 11.7573 103.673 12.487 105.638 12.5344C107.605 12.5869 109.528 11.9546 111.08 10.7456C109.921 11.216 108.669 11.4099 107.422 11.312C106.175 11.2141 104.968 10.8271 103.897 10.1816H103.88ZM109.534 0.473615C109.246 0.300384 108.944 0.153136 108.63 0.0336151H104.537C103.542 0.412847 102.676 1.06711 102.04 1.92002C101.41 2.76411 101.04 3.77312 100.974 4.82402C101.183 3.97338 101.624 3.19767 102.249 2.58402C102.881 1.96373 103.67 1.52754 104.531 1.32242C105.396 1.11562 106.301 1.1463 107.15 1.41122C107.994 1.67378 108.75 2.16235 109.337 2.82402C109.917 3.47855 110.303 4.28246 110.45 5.14482C110.596 6.00452 110.496 6.88788 110.163 7.69361C109.826 8.50478 109.271 9.20676 108.56 9.72162C107.841 10.2417 106.994 10.5569 106.11 10.6336C107.055 10.7122 108.004 10.5555 108.873 10.1776C109.736 9.80293 110.491 9.21691 111.068 8.47362V1.82162C110.645 1.28079 110.125 0.823412 109.534 0.472815V0.473615Z" fill="#FF6600"/>
<path fill-rule="evenodd" clip-rule="evenodd" d="M33.608 27.7576V28.2088H31.896V31.9264H31.3488V27.7576H33.608ZM34.94 29.8048C35.0888 29.8384 35.2424 29.8536 35.396 29.8504C36.0584 29.8504 36.4616 29.5344 36.4616 28.9592C36.4616 28.3832 36.064 28.1408 35.4584 28.1408C35.2844 28.1368 35.1106 28.1521 34.94 28.1864V29.8048ZM34.364 27.7968C34.7128 27.7422 35.0654 27.7159 35.4184 27.7184C35.8446 27.684 36.2687 27.8064 36.6112 28.0624C36.7347 28.1711 36.8325 28.306 36.8972 28.4573C36.962 28.6086 36.9922 28.7724 36.9856 28.9368C36.9944 29.0999 36.9699 29.263 36.9135 29.4163C36.8571 29.5695 36.77 29.7096 36.6576 29.828C36.4812 29.9862 36.2752 30.108 36.0516 30.1864C35.8279 30.2648 35.591 30.2983 35.3544 30.2848C35.2056 30.2882 35.057 30.2748 34.9112 30.2448V31.9376H34.3352V27.82L34.3632 27.7968H34.364ZM38.1624 27.7576L39.0096 29.54C39.1192 29.788 39.2176 30.036 39.3216 30.2792C39.396 30.0704 39.4768 29.8224 39.5856 29.5288L40.2496 27.7576H40.8256L39.932 29.9016C39.729 30.4587 39.4619 30.9903 39.136 31.4856C39.0272 31.6412 38.883 31.7688 38.7152 31.8576C38.5472 31.9464 38.3592 31.9952 38.168 31.9992C38.0625 32.0028 37.9572 31.9893 37.856 31.9592L37.9144 31.5192C37.9813 31.528 38.0491 31.528 38.116 31.5192C38.56 31.5192 38.82 31.108 38.952 30.8032C38.9754 30.7661 38.9878 30.7231 38.9878 30.6792C38.9878 30.6353 38.9754 30.5924 38.952 30.5552L37.5336 27.7352L38.1624 27.7576ZM44.6936 27.7576V31.9256H44.1408V28.2088H42.1632V31.9264H41.616V27.7576H44.6936ZM49.0456 27.7576V31.9256H48.4984V28.2088H46.52V31.9264H45.9664V27.7576H49.0448H49.0456ZM52.412 30.1944L51.9968 28.9928C51.9048 28.7224 51.8416 28.4744 51.7784 28.2312C51.7144 28.4792 51.6456 28.7336 51.5648 28.9872L51.1496 30.1944H52.412ZM51.0176 30.6176L50.5736 31.932H49.9976L51.444 27.764H52.1064L53.5592 31.932H52.9832L52.5272 30.6176H51.0168H51.0176ZM56.712 27.7576V29.608H56.8856L58.344 27.7576H59.0072L57.3928 29.6696C57.6808 29.7096 57.9488 29.8328 58.1616 30.0256C58.3752 30.2176 58.5232 30.4704 58.5856 30.7472C58.7184 31.1504 58.8736 31.5456 59.0528 31.9312H58.4768C58.3245 31.614 58.1953 31.2863 58.0904 30.9504C58.0408 30.6793 57.8933 30.4359 57.676 30.2664C57.4562 30.0944 57.182 30.0068 56.9032 30.0192H56.724V31.9312H56.1824V27.7632L56.7128 27.7576H56.712ZM60.1256 29.8672C60.1256 30.7584 60.6216 31.5592 61.4856 31.5592C62.3504 31.5592 62.852 30.7752 62.852 29.828C62.852 28.9984 62.408 28.136 61.492 28.136C60.5752 28.136 60.1256 28.9592 60.1256 29.8728V29.8672ZM63.4344 29.7992C63.4344 31.232 62.5408 31.9936 61.4568 31.9936C60.3736 31.9936 59.5432 31.1424 59.5432 29.8784C59.5432 28.6144 60.3848 27.6896 61.5208 27.6896C62.6568 27.6896 63.4344 28.564 63.4344 29.7992ZM68.0344 30.0928C68.0056 29.5288 67.9656 28.8128 67.9712 28.2928C67.8272 28.784 67.6488 29.3088 67.4352 29.8784L66.6456 31.8976H66.2304L65.5384 29.9128C65.3465 29.3816 65.1809 28.8412 65.0424 28.2936C65.0424 28.8128 64.9968 29.512 64.9624 30.1384L64.8472 31.9264H64.34L64.6392 27.7576H65.3432L66.0688 29.7768C66.2416 30.2904 66.392 30.7472 66.496 31.1816C66.6048 30.7584 66.7552 30.3016 66.9456 29.7768L67.7056 27.7576H68.4096L68.6744 31.9256H68.1384L68.0288 30.0936H68.0344V30.0928ZM72.9232 27.7576V31.9256H72.3696V28.2088H70.3928V31.9264H69.8392V27.7576H72.9232ZM76.284 30.1944L75.868 28.9928C75.7768 28.7224 75.7128 28.4744 75.6496 28.2312C75.5856 28.4792 75.5168 28.7336 75.436 28.9872L75.0216 30.1944H76.284ZM74.8888 30.6176L74.4448 31.932H73.8688L75.3152 27.764H75.9784L77.4312 31.932H76.8552L76.3992 30.6176H74.888H74.8888ZM78.9296 27.7576V29.5008H80.9936V27.7576H81.5472V31.9256H80.9936V29.9688H78.9296V31.9264H78.3824V27.7576H78.9296ZM83.3632 27.7576V29.512C83.3632 30.1664 83.3632 30.7192 83.3112 31.2776C83.5248 30.8432 83.7896 30.392 84.1016 29.8952L85.4792 27.752H86.0552V31.92H85.5368V30.144C85.5368 29.4672 85.5368 28.976 85.5888 28.4512C85.3558 28.936 85.0917 29.4052 84.7984 29.856L83.4672 31.9264H82.8904V27.7584H83.3632V27.7576ZM88.5112 26.8776C88.5112 27.0752 88.6032 27.2664 88.8976 27.2664C89.1912 27.2664 89.2608 27.0808 89.2832 26.8776H89.704C89.6752 27.2896 89.4216 27.5432 88.8856 27.5432C88.7879 27.5567 88.6884 27.5496 88.5936 27.5227C88.4987 27.4957 88.4104 27.4493 88.3344 27.3864C88.2597 27.324 88.1992 27.2463 88.1571 27.1585C88.115 27.0707 88.0923 26.975 88.0904 26.8776H88.5112ZM87.8136 27.7576V29.512C87.8136 30.1664 87.8136 30.7192 87.7616 31.2776C87.9752 30.8432 88.24 30.392 88.5512 29.8952L89.9288 27.7512H90.5056V31.92H89.9872V30.144C89.9872 29.4664 89.9872 28.976 90.0384 28.4512C89.8064 28.936 89.5432 29.4048 89.2488 29.856L87.9176 31.9256H87.3408V27.7576H87.8136ZM86.4128 15.7712L91.1512 7.99842H87.56L84.6776 13.1536L81.8352 7.99842H78.2152L82.9536 15.7712L77.892 23.9504H81.5296L84.6656 18.3944L87.8248 23.9504H91.4624L86.384 15.7712H86.4128ZM65.4464 23.9504H76.1856V21.1696H68.6336V17.3616H75.0616V14.576H68.6288V10.768H76.1808V7.98722H65.44V23.9392L65.4456 23.9504H65.4464ZM51.5128 10.7792H55.7736V23.9504H58.9552V10.7792H63.1872V7.99842H51.4832V10.7792H51.512H51.5128ZM46.9528 16.5888C46.9528 18.8056 46.8608 19.9736 46.1752 20.6896C45.9137 20.9707 45.5959 21.1934 45.2424 21.3432C44.8866 21.4941 44.5033 21.5693 44.1168 21.564C43.7329 21.5701 43.3521 21.4951 42.9992 21.344C42.6484 21.1942 42.3336 20.971 42.076 20.6896C41.46 20.0184 41.2752 19.0768 41.2752 16.7416V15.2464C41.2752 13.2272 41.4368 11.9528 42.0768 11.236C42.333 10.9546 42.6479 10.7328 42.9992 10.5864C43.352 10.4392 43.7336 10.3704 44.1168 10.3848C44.5018 10.3732 44.8848 10.4433 45.2408 10.5904C45.596 10.7376 45.9152 10.9584 46.1752 11.236C46.7912 11.9296 46.9536 13.0752 46.9536 15.1336V16.5896L46.9528 16.5888ZM44.1176 7.60962C43.3012 7.58319 42.488 7.72506 41.7288 8.02642C40.9737 8.32577 40.2893 8.77913 39.7192 9.35762C38.5088 10.5936 38.2088 12.2568 38.1168 14.5864H35.644V7.99842H32.4616V23.9504H35.644V17.3616H38.0936C38.14 19.4656 38.3704 21.248 39.7192 22.5904C40.912 23.7132 42.4891 24.3372 44.1272 24.3344C45.7712 24.3344 47.3512 23.7096 48.5336 22.5904C50.1128 20.9776 50.136 19.1216 50.136 16.4544V14.3104C50.136 12.116 49.744 10.5704 48.5336 9.35842C47.9577 8.78288 47.2699 8.33147 46.5128 8.03202C45.7511 7.73091 44.9363 7.58723 44.1176 7.60962ZM18.54 15.2352C18.54 20.2328 17.3872 21.1696 15.744 21.1696H15.288V23.9504H16.5456C19.9352 23.9504 21.6064 22.1112 21.6064 15.416V10.7792H25.4976V23.9504H28.68V7.99842H18.5336V15.2352H18.5392H18.54ZM5.2 18.5232L7.2696 12.7032L9.252 18.524H5.2V18.5232ZM5.932 8.01522L0 23.968H3.32L4.3064 21.1472H10.0712L11.0336 23.968H14.3536L8.4224 8.00002L5.932 8.01603V8.01522Z" fill="#4D4D4D"/>
</g>
</mask>
<g mask="url(#mask0)">
<rect x="-19.2065" y="-29.2139" width="166.467" height="90.6667" fill="#9A9A9A"/>
</g>
<defs>
<clipPath id="clip0">
<rect width="128.8" height="32" fill="white"/>
</clipPath>
</defs>
</svg>
