<svg width="128" height="128" viewBox="0 0 128 128" fill="none" xmlns="http://www.w3.org/2000/svg">
<path d="M78.3992 33.6002C77.422 34.5972 76.8747 35.9375 76.8747 37.3336C76.8747 38.7296 77.422 40.0699 78.3992 41.0669L86.9326 49.6002C87.9295 50.5774 89.2699 51.1248 90.6659 51.1248C92.0619 51.1248 93.4023 50.5774 94.3992 49.6002L114.506 29.4936C117.188 35.4199 118 42.0228 116.834 48.4223C115.668 54.8219 112.579 60.7141 107.979 65.3137C103.38 69.9133 97.4875 73.002 91.088 74.168C84.6885 75.334 78.0856 74.522 72.1592 71.8402L35.3059 108.694C33.1842 110.815 30.3065 112.007 27.3059 112.007C24.3053 112.007 21.4276 110.815 19.3059 108.694C17.1842 106.572 15.9922 103.694 15.9922 100.694C15.9922 97.693 17.1842 94.8153 19.3059 92.6935L56.1592 55.8402C53.4774 49.9139 52.6654 43.311 53.8315 36.9114C54.9975 30.5119 58.0861 24.6197 62.6857 20.0201C67.2854 15.4204 73.1776 12.3318 79.5771 11.1658C85.9766 9.99977 92.5795 10.8118 98.5059 13.4936L78.4526 33.5469L78.3992 33.6002Z" stroke="#44C8D4" stroke-width="8" stroke-linecap="round" stroke-linejoin="round"/>
</svg>
