<svg width="130" height="65" viewBox="0 0 130 65" fill="none" xmlns="http://www.w3.org/2000/svg">
<path d="M10.6038 10.5975V35.5534C10.6038 35.8286 10.7779 36.0743 11.0386 36.1664L22.5309 40.1978C22.9551 40.3466 23.3994 40.0324 23.3994 39.5847V6.35358C23.3994 5.90119 22.9468 5.587 22.5215 5.7441L11.0291 9.98805C10.7732 10.0825 10.6038 10.3259 10.6038 10.5975ZM20.3403 36.0518L12.5752 34.071C12.2873 33.9978 12.0847 33.7379 12.0847 33.4414V12.8075C12.0847 12.5181 12.2767 12.263 12.5563 12.1827L20.4315 9.92191C20.8497 9.80143 21.2656 10.1156 21.2632 10.5491L21.1519 35.4258C21.1507 35.8475 20.7514 36.157 20.3403 36.0518Z" fill="#10A9B7"/>
<path d="M25.0605 6.35352V39.5835C25.0605 40.0312 25.5048 40.3453 25.929 40.1965L37.4214 36.1652C37.682 36.0742 37.8562 35.8285 37.8562 35.5521V10.5975C37.8562 10.3258 37.6867 10.0825 37.4308 9.98799L25.9385 5.74404C25.5119 5.58812 25.0605 5.90113 25.0605 6.35352ZM28.0272 9.92185L35.9037 12.1838C36.1833 12.2641 36.3752 12.5181 36.3752 12.8086V33.4426C36.3752 33.739 36.1738 33.9989 35.8847 34.0721L28.1196 36.053C27.7085 36.1581 27.3081 35.8498 27.3069 35.4269L27.1955 10.5502C27.1931 10.1156 27.6102 9.80137 28.0272 9.92185Z" fill="#10A9B7"/>
<path d="M8.70813 37.7962V9.8674C8.70813 9.60754 8.86452 9.37248 9.10385 9.26972L14.8962 6.80816C15.4318 6.58019 15.4223 5.82188 14.882 5.6069L0.893324 0.0482983C0.464434 -0.121791 0 0.192401 0 0.651878V64.3514C0 64.825 0.492868 65.1404 0.925313 64.9408L22.9622 54.7922C23.1933 54.6858 23.3402 54.4555 23.3402 54.2028V43.799C23.3402 43.5226 23.1648 43.2769 22.903 43.1859L9.14532 38.4105C8.88348 38.3195 8.70813 38.0726 8.70813 37.7962ZM3.52828 36.2465C3.09702 36.4426 2.60652 36.1272 2.60652 35.6548V31.5667C2.60652 31.1155 3.05555 30.8025 3.48088 30.9561C3.73798 31.0494 3.90977 31.2939 3.90977 31.5667V35.6548C3.90977 35.9099 3.76049 36.1414 3.52828 36.2465Z" fill="#10A9B7"/>
<path d="M61.6857 21.1424L56.3222 30.0661C56.2404 30.2031 56.0912 30.287 55.9312 30.287H51.4065C51.2466 30.287 51.0985 30.2031 51.0156 30.0661L45.6521 21.1424C45.4139 20.7467 44.8061 20.9156 44.8061 21.3762V35.6117C44.8061 35.8622 44.6023 36.0665 44.35 36.0665H40.221C39.9699 36.0665 39.7649 35.8633 39.7649 35.6117V10.8921C39.7649 10.6417 39.9687 10.4374 40.221 10.4374H44.5431C44.7054 10.4374 44.8559 10.5236 44.9365 10.663L53.2738 24.9623C53.4491 25.2635 53.8863 25.2635 54.0616 24.9623L62.3989 10.663C62.4807 10.5236 62.63 10.4374 62.7923 10.4374H67.1155C67.3667 10.4374 67.5717 10.6405 67.5717 10.8921V35.6117C67.5717 35.8622 67.3679 36.0665 67.1155 36.0665H62.9866C62.7354 36.0665 62.5305 35.8633 62.5305 35.6117V21.3762C62.5316 20.9156 61.9227 20.7478 61.6857 21.1424Z" fill="#44C8D4"/>
<path d="M77.8283 36.066H73.6993C73.4481 36.066 73.2432 35.8628 73.2432 35.6112V10.8916C73.2432 10.6412 73.4469 10.4369 73.6993 10.4369H84.5851C85.8172 10.4369 86.9724 10.6601 88.0505 11.1066C89.1287 11.5531 90.067 12.1602 90.8644 12.928C91.6629 13.6957 92.2921 14.5887 92.7541 15.6081C93.2162 16.6274 93.4472 17.7094 93.4472 18.8539C93.4472 19.9985 93.2162 21.0804 92.7541 22.0998C92.2921 23.1192 91.6618 24.0121 90.8644 24.7799C90.0659 25.5476 89.1275 26.1548 88.0505 26.6013C86.9724 27.0477 85.8172 27.271 84.5851 27.271H78.7405C78.4894 27.271 78.2844 27.4741 78.2844 27.7257V35.6112C78.2832 35.8628 78.0794 36.066 77.8283 36.066ZM84.5839 22.5817C85.6762 22.5817 86.5862 22.2262 87.3136 21.5139C88.0411 20.8017 88.406 19.9158 88.406 18.8551C88.406 17.7944 88.0423 16.9074 87.3136 16.1963C86.585 15.484 85.6751 15.1285 84.5839 15.1285H78.7394C78.4882 15.1285 78.2832 15.3317 78.2832 15.5833V22.1293C78.2832 22.3797 78.487 22.5841 78.7394 22.5841H84.5839V22.5817Z" fill="#44C8D4"/>
<path d="M102.19 36.066H98.0609C97.8097 36.066 97.6047 35.8628 97.6047 35.6112V10.8916C97.6047 10.6412 97.8085 10.4369 98.0609 10.4369H102.19C102.441 10.4369 102.646 10.6401 102.646 10.8916V35.6112C102.646 35.8628 102.442 36.066 102.19 36.066Z" fill="#44C8D4"/>
<path d="M113.352 27.3241C113.541 27.0902 113.453 26.7441 113.179 26.6213C112.522 26.3284 111.91 25.9799 111.34 25.5748C110.611 25.0586 109.981 24.4586 109.45 23.7735C108.918 23.0896 108.498 22.3289 108.189 21.4915C107.881 20.654 107.727 19.774 107.727 18.8527C107.727 17.7082 107.958 16.6262 108.421 15.6068C108.883 14.5887 109.513 13.6945 110.31 12.9268C111.109 12.159 112.046 11.5519 113.124 11.1054C114.202 10.6589 115.357 10.4357 116.59 10.4357H127.475C127.727 10.4357 127.931 10.6388 127.931 10.8904V35.61C127.931 35.8604 127.728 36.0648 127.475 36.0648H123.346C123.095 36.0648 122.89 35.8616 122.89 35.61V15.582C122.89 15.3316 122.686 15.1273 122.434 15.1273H116.59C115.581 15.1273 114.692 15.4557 113.923 16.1112C113.153 16.7679 112.767 17.7932 112.767 19.1893C112.767 20.6694 113.208 21.7159 114.091 22.3301C114.972 22.9443 116.086 23.2514 117.431 23.2514H121.858C122.241 23.2514 122.453 23.692 122.214 23.9896L112.653 35.8959C112.566 36.0033 112.436 36.066 112.297 36.066H107.212C106.829 36.066 106.617 35.623 106.858 35.3265L113.352 27.3241Z" fill="#44C8D4"/>
<path d="M29.3649 52.7842C29.1611 52.7842 28.9265 52.7759 28.6599 52.7594C28.3934 52.7429 28.1173 52.7169 27.8282 52.6838C27.5391 52.6507 27.2512 52.6106 26.9622 52.5657C26.7394 52.5314 26.5321 52.4925 26.339 52.4511C26.2418 52.4299 26.1731 52.3448 26.1731 52.2468V50.7703C26.1731 50.6368 26.2963 50.5376 26.4266 50.566C26.5617 50.5955 26.7122 50.6215 26.878 50.6451C27.1553 50.6853 27.4467 50.7183 27.7524 50.7467C28.0581 50.775 28.3661 50.7975 28.6777 50.814C28.9893 50.8305 29.2748 50.84 29.5355 50.84C30.0106 50.84 30.3423 50.7916 30.5283 50.6959C30.7155 50.6002 30.808 50.3722 30.808 50.0108C30.808 49.7061 30.712 49.4864 30.5189 49.3505C30.3257 49.2147 29.9928 49.1474 29.5177 49.1474H27.3508C27.2347 49.1474 27.1411 49.0541 27.1411 48.9383V47.8174C27.1411 47.7016 27.2347 47.6083 27.3508 47.6083H29.4158C29.8459 47.6083 30.1457 47.5433 30.3151 47.4134C30.4845 47.2835 30.5698 47.0721 30.5698 46.7791C30.5698 46.4862 30.4881 46.2972 30.3234 46.2122C30.1587 46.1271 29.8791 46.0858 29.4834 46.0858C29.2452 46.0858 28.9763 46.094 28.6765 46.1106C28.3768 46.1271 28.083 46.1531 27.7939 46.1862C27.5048 46.2204 27.2311 46.257 26.9705 46.296C26.8306 46.3173 26.7062 46.3397 26.5949 46.3622C26.4646 46.3893 26.3413 46.2913 26.3413 46.1578V44.6766C26.3413 44.5798 26.4077 44.4947 26.5025 44.4735C26.6849 44.4321 26.8792 44.3943 27.0877 44.3589C27.3591 44.314 27.6304 44.2739 27.9029 44.2408C28.1742 44.2065 28.4408 44.1817 28.7002 44.1652C28.9609 44.1486 29.1872 44.1404 29.3791 44.1404C29.8317 44.1404 30.2558 44.1888 30.6527 44.2845C31.0485 44.3802 31.3909 44.5243 31.68 44.7156C31.969 44.907 32.1953 45.1503 32.3588 45.4432C32.5223 45.7361 32.6053 46.081 32.6053 46.4756C32.6053 47.1512 32.3707 47.6674 31.9003 48.0229C31.7795 48.115 31.8032 48.3017 31.9382 48.3713C32.1941 48.5036 32.3944 48.6619 32.5377 48.845C32.7415 49.1049 32.8434 49.4875 32.8434 49.9955C32.8434 50.8754 32.546 51.5605 31.9525 52.0519C31.3601 52.5385 30.4964 52.7842 29.3649 52.7842Z" fill="#44C8D4"/>
<path d="M33.9653 48.4352C33.9653 47.8482 34.0613 47.293 34.2544 46.7686C34.4464 46.2441 34.7295 45.787 35.1027 45.3972C35.4759 45.0086 35.9344 44.7003 36.4783 44.4747C37.0209 44.2491 37.6381 44.1357 38.3289 44.1357C38.9734 44.1357 39.5563 44.2373 40.0776 44.4405C40.5977 44.6436 41.042 44.9307 41.4105 45.3039C41.7778 45.676 42.0668 46.1307 42.2766 46.6658C42.4863 47.2021 42.6012 47.7974 42.6249 48.4518C42.6355 48.6667 42.6415 48.9289 42.6415 49.2384C42.6415 49.5491 42.6581 49.8904 42.6924 50.2625C42.7268 50.6346 42.7884 51.0267 42.8796 51.4389C42.9495 51.7567 43.049 52.0756 43.1794 52.3957C43.235 52.5327 43.1343 52.6827 42.9851 52.6827H41.4034C41.3204 52.6827 41.2434 52.6343 41.2103 52.5575C41.1024 52.3095 41.0136 52.0567 40.9413 51.7968C40.8963 51.6362 40.6937 51.5866 40.5823 51.7106C40.3371 51.9858 40.0504 52.2138 39.721 52.3945C39.2684 52.6426 38.7246 52.7666 38.0919 52.7666C37.4924 52.7666 36.9379 52.6544 36.4285 52.4276C35.919 52.202 35.483 51.8949 35.1217 51.5051C34.7591 51.1153 34.4772 50.6594 34.2734 50.1337C34.0696 49.6081 33.9653 49.0435 33.9653 48.4352ZM38.3277 46.0315C37.9083 46.0315 37.5528 46.0941 37.2578 46.2182C36.964 46.3422 36.7235 46.5146 36.5363 46.7343C36.3491 46.954 36.214 47.2115 36.1287 47.5044C36.0434 47.7986 36.002 48.1139 36.002 48.4518C36.002 48.7896 36.0446 49.1061 36.1287 49.3991C36.214 49.6932 36.3491 49.9495 36.5363 50.1692C36.7235 50.3889 36.9628 50.5613 37.2578 50.6854C37.5517 50.8094 37.9083 50.872 38.3277 50.872C39.0291 50.872 39.5812 50.6771 39.9828 50.2885C40.3845 49.8999 40.5859 49.288 40.5859 48.4529C40.5515 47.7088 40.3596 47.1194 40.0089 46.6847C39.657 46.2489 39.0966 46.0315 38.3277 46.0315Z" fill="#44C8D4"/>
<path d="M44.2173 44.9483C44.2173 44.3058 44.3215 43.7247 44.5313 43.2049C44.741 42.6864 45.0372 42.2435 45.4222 41.8761C45.8073 41.51 46.2741 41.2217 46.8226 41.0127C47.3712 40.8036 47.9908 40.6879 48.6815 40.6654C48.8735 40.6548 49.1081 40.6489 49.3865 40.6489C49.6637 40.6489 49.9658 40.6323 50.2952 40.5981C50.6234 40.5638 50.9682 40.5024 51.3307 40.4115C51.5937 40.3465 51.8568 40.2532 52.1198 40.1351C52.2596 40.0725 52.4172 40.1717 52.4172 40.3241V41.7545C52.4172 41.8336 52.3721 41.908 52.2999 41.9434C51.9658 42.1053 51.6305 42.2269 51.2963 42.3084C50.9231 42.3994 50.5724 42.4608 50.2443 42.495C49.9161 42.5293 49.6163 42.5458 49.345 42.5458C49.0737 42.5458 48.8533 42.5517 48.6827 42.5624C47.9363 42.5966 47.3439 42.7998 46.9091 43.1719C46.4731 43.5439 46.2551 44.1369 46.2551 44.9483V45.2023C46.5489 44.8751 46.8996 44.6153 47.3072 44.4239C47.7148 44.2326 48.1958 44.1357 48.7503 44.1357C49.3498 44.1357 49.9019 44.2491 50.4054 44.4747C50.9089 44.7003 51.3449 45.0074 51.7122 45.3972C52.0795 45.7858 52.3662 46.2429 52.57 46.7685C52.7738 47.293 52.8757 47.8599 52.8757 48.4694C52.8757 49.034 52.7844 49.575 52.6043 50.0935C52.4231 50.6121 52.1482 51.0692 51.7809 51.4649C51.4136 51.8594 50.9575 52.176 50.4149 52.4122C49.8722 52.6496 49.2431 52.7677 48.5311 52.7677C47.8297 52.7677 47.2124 52.6555 46.6804 52.4287C46.1485 52.2031 45.6983 51.896 45.331 51.5062C44.9637 51.1164 44.6865 50.6605 44.4993 50.1349C44.3121 49.6104 44.2197 49.0494 44.2197 48.4505V44.9483H44.2173ZM48.5121 50.8719C48.9303 50.8719 49.287 50.8105 49.582 50.6853C49.8758 50.5613 50.1163 50.3888 50.3035 50.1691C50.4907 49.9494 50.6258 49.6931 50.7111 49.399C50.7964 49.1061 50.8378 48.7895 50.8378 48.4517C50.8378 48.1139 50.7952 47.7973 50.7111 47.5044C50.6258 47.2115 50.4907 46.954 50.3035 46.7343C50.1163 46.5146 49.8758 46.3421 49.582 46.2181C49.2881 46.0941 48.9315 46.0315 48.5121 46.0315C47.8107 46.0315 47.2586 46.2264 46.857 46.615C46.4553 47.0036 46.2539 47.6166 46.2539 48.4505C46.2539 49.2856 46.4542 49.8975 46.857 50.2861C47.2586 50.677 47.8107 50.8719 48.5121 50.8719Z" fill="#44C8D4"/>
<path d="M58.3067 50.872C59.0306 50.872 59.5803 50.6464 59.9535 50.1952C60.3267 49.744 60.5139 49.1628 60.5139 48.4518V44.4299C60.5139 44.3141 60.6075 44.2208 60.7236 44.2208H62.3408C62.457 44.2208 62.5506 44.3141 62.5506 44.4299V52.2421C62.5506 52.8398 62.4546 53.4044 62.2615 53.9348C62.0695 54.4651 61.7864 54.9246 61.4132 55.3144C61.04 55.703 60.5814 56.0113 60.0388 56.2369C59.4962 56.4625 58.873 56.5759 58.1716 56.5759C57.7072 56.5759 57.2463 56.5452 56.7878 56.4826C56.3897 56.4282 56.0272 56.3514 55.7013 56.2499C55.6149 56.2227 55.5568 56.1412 55.5568 56.0503V54.4462C55.5568 54.2986 55.7049 54.197 55.8423 54.2513C56.0828 54.347 56.3636 54.4238 56.6859 54.484C57.1444 54.5691 57.6053 54.6104 58.0697 54.6104C58.5342 54.6104 58.9216 54.5478 59.232 54.4238C59.5436 54.2998 59.7948 54.1308 59.9879 53.9159C60.1798 53.7009 60.3161 53.4505 60.3954 53.1623C60.4748 52.8741 60.5139 52.5611 60.5139 52.2232C60.5139 52.0437 60.3054 51.9516 60.1668 52.065C59.9571 52.2374 59.7284 52.3803 59.4784 52.4937C59.0827 52.6745 58.6183 52.7642 58.0863 52.7642C57.5093 52.7642 56.9833 52.652 56.5082 52.4252C56.0331 52.1996 55.6255 51.8925 55.2855 51.5027C54.9455 51.1129 54.686 50.657 54.5047 50.1314C54.3234 49.6069 54.2334 49.0459 54.2334 48.447V44.4251C54.2334 44.3094 54.327 44.2161 54.4431 44.2161H56.0603C56.1764 44.2161 56.27 44.3094 56.27 44.4251V48.447C56.27 49.1687 56.4288 49.7534 56.7451 50.1987C57.0615 50.6487 57.5828 50.872 58.3067 50.872Z" fill="#44C8D4"/>
<path d="M63.8574 54.8418V51.1483C63.8574 51.0325 63.951 50.9392 64.0671 50.9392H64.6773C64.7579 50.9392 64.8313 50.8943 64.8657 50.8223C65.1204 50.2884 65.3218 49.6222 65.4699 48.8237C65.6287 47.9662 65.7128 46.9055 65.7246 45.6417V44.4298C65.7246 44.314 65.8182 44.2207 65.9343 44.2207H71.7101C71.8263 44.2207 71.9199 44.314 71.9199 44.4298V50.7302C71.9199 50.8459 72.0134 50.9392 72.1296 50.9392H72.9317C73.0478 50.9392 73.1414 51.0325 73.1414 51.1483V54.8418C73.1414 54.9576 73.0478 55.0509 72.9317 55.0509H71.3831C71.267 55.0509 71.1734 54.9576 71.1734 54.8418V52.8905C71.1734 52.7748 71.0798 52.6815 70.9637 52.6815H66.0706C65.9545 52.6815 65.8609 52.7748 65.8609 52.8905V54.8418C65.8609 54.9576 65.7673 55.0509 65.6512 55.0509H64.0683C63.951 55.0521 63.8574 54.9576 63.8574 54.8418ZM69.8832 50.7302V46.1732C69.8832 46.0574 69.7896 45.9641 69.6735 45.9641H67.8004C67.6855 45.9641 67.5919 46.0574 67.5907 46.1732C67.5836 47.0945 67.5302 47.9308 67.4307 48.6808C67.3371 49.386 67.1973 50.051 67.0125 50.6735C66.9734 50.8069 67.0753 50.9392 67.2139 50.9392H69.6735C69.7896 50.9392 69.8832 50.8459 69.8832 50.7302Z" fill="#44C8D4"/>
<path d="M74.0762 48.4518C74.0762 47.8541 74.1721 47.293 74.3653 46.7686C74.5572 46.2441 74.8404 45.787 75.2136 45.3972C75.5868 45.0086 76.0429 44.7003 76.5796 44.4747C77.1175 44.2491 77.7253 44.1357 78.4042 44.1357C79.083 44.1357 79.6908 44.2491 80.2287 44.4747C80.7666 44.7003 81.2216 45.0074 81.5948 45.3972C81.968 45.787 82.2511 46.243 82.4431 46.7686C82.635 47.293 82.7322 47.8541 82.7322 48.4518C82.7322 49.0494 82.6362 49.6105 82.4431 50.1361C82.2511 50.6605 81.968 51.1177 81.5948 51.5074C81.2216 51.8961 80.7654 52.2043 80.2287 52.4299C79.6908 52.6555 79.083 52.7689 78.4042 52.7689C77.7253 52.7689 77.1163 52.6567 76.5796 52.4299C76.0417 52.2043 75.5868 51.8972 75.2136 51.5074C74.8404 51.1177 74.5572 50.6617 74.3653 50.1361C74.1721 49.6105 74.0762 49.0494 74.0762 48.4518ZM76.1128 48.4518C76.1128 48.7907 76.1555 49.1061 76.2396 49.3991C76.3249 49.6932 76.4599 49.9495 76.6471 50.1692C76.8343 50.3889 77.0713 50.5613 77.3604 50.6853C77.6495 50.8094 77.9966 50.872 78.4042 50.872C78.8117 50.872 79.1601 50.8106 79.448 50.6853C79.737 50.5613 79.974 50.3889 80.1612 50.1692C80.3484 49.9495 80.4835 49.6932 80.5688 49.3991C80.6541 49.1061 80.6955 48.7896 80.6955 48.4518C80.6955 48.1139 80.6529 47.7974 80.5688 47.5044C80.4835 47.2115 80.3484 46.954 80.1612 46.7343C79.974 46.5146 79.737 46.3422 79.448 46.2182C79.1589 46.0941 78.8117 46.0315 78.4042 46.0315C77.9966 46.0315 77.6483 46.0941 77.3604 46.2182C77.0713 46.3422 76.8343 46.5146 76.6471 46.7343C76.4599 46.954 76.3249 47.2115 76.2396 47.5044C76.1555 47.7974 76.1128 48.1128 76.1128 48.4518Z" fill="#44C8D4"/>
<path d="M84.2771 52.4736V44.431C84.2771 44.3152 84.3707 44.2219 84.4868 44.2219H88.2319C89.2508 44.2219 90.0114 44.4026 90.515 44.7629C91.0185 45.1243 91.2708 45.6937 91.2708 46.4721C91.2708 47.1477 91.0351 47.6639 90.5647 48.0194C90.4439 48.1104 90.4664 48.2982 90.6014 48.3678C90.8585 48.5013 91.0588 48.662 91.2021 48.8498C91.4059 49.1155 91.5078 49.5018 91.5078 50.0085C91.5078 50.8778 91.2412 51.5405 90.7104 51.9964C90.1785 52.4535 89.3752 52.6815 88.3006 52.6815H84.488C84.3719 52.6827 84.2771 52.5882 84.2771 52.4736ZM86.3149 47.3957C86.3149 47.5115 86.4085 47.6048 86.5246 47.6048H88.0802C88.5103 47.6048 88.8101 47.5398 88.9795 47.4099C89.1489 47.28 89.2342 47.0686 89.2342 46.7756C89.2342 46.4827 89.1525 46.2677 88.9878 46.1331C88.8231 45.9972 88.5435 45.9299 88.1478 45.9299H86.5246C86.4085 45.9299 86.3149 46.0232 86.3149 46.139V47.3957ZM86.3149 50.7633C86.3149 50.879 86.4085 50.9723 86.5246 50.9723H88.1655C88.6406 50.9723 88.9771 50.905 89.175 50.7692C89.3728 50.6333 89.4723 50.403 89.4723 50.0758C89.4723 49.7486 89.3764 49.5112 89.1833 49.3648C88.9913 49.2183 88.6572 49.1451 88.1821 49.1451H86.5246C86.4085 49.1451 86.3149 49.2384 86.3149 49.3541V50.7633Z" fill="#44C8D4"/>
<path d="M94.9483 52.6827H93.331C93.2149 52.6827 93.1213 52.5894 93.1213 52.4736V44.431C93.1213 44.3152 93.2149 44.2219 93.331 44.2219H94.9483C95.0644 44.2219 95.158 44.3152 95.158 44.431V47.3119C95.158 47.4276 95.2516 47.5209 95.3677 47.5209H98.6827C98.7988 47.5209 98.8924 47.4276 98.8924 47.3119V44.431C98.8924 44.3152 98.986 44.2219 99.1021 44.2219H100.719C100.835 44.2219 100.929 44.3152 100.929 44.431V52.4736C100.929 52.5894 100.835 52.6827 100.719 52.6827H99.1021C98.986 52.6827 98.8924 52.5894 98.8924 52.4736V49.5915C98.8924 49.4758 98.7988 49.3825 98.6827 49.3825H95.3677C95.2516 49.3825 95.158 49.4758 95.158 49.5915V52.4736C95.158 52.5882 95.0644 52.6827 94.9483 52.6827Z" fill="#44C8D4"/>
<path d="M104.893 52.6826H103.177C103.061 52.6826 102.967 52.5893 102.967 52.4736V44.431C102.967 44.3152 103.061 44.2219 103.177 44.2219H104.794C104.91 44.2219 105.004 44.3152 105.004 44.431V48.9631C105.004 49.1686 105.27 49.2513 105.386 49.0812L108.675 44.3117C108.714 44.255 108.78 44.2207 108.848 44.2207H110.565C110.681 44.2207 110.775 44.314 110.775 44.4298V52.4724C110.775 52.5881 110.681 52.6814 110.565 52.6814H108.948C108.832 52.6814 108.738 52.5881 108.738 52.4724V47.9402C108.738 47.7347 108.472 47.652 108.355 47.8221L105.066 52.5917C105.026 52.6484 104.962 52.6826 104.893 52.6826Z" fill="#44C8D4"/>
<path d="M114.638 52.6826H113.021C112.905 52.6826 112.811 52.5893 112.811 52.4736V44.431C112.811 44.3152 112.905 44.2219 113.021 44.2219H114.638C114.754 44.2219 114.848 44.3152 114.848 44.431V52.4736C114.848 52.5881 114.754 52.6826 114.638 52.6826ZM114.982 48.3241L118.095 44.3022C118.136 44.2514 118.196 44.2207 118.261 44.2207H120.091C120.265 44.2207 120.363 44.4203 120.256 44.5573L117.341 48.3229C117.283 48.3985 117.283 48.5036 117.341 48.5781L120.256 52.3436C120.363 52.4806 120.265 52.6803 120.091 52.6803H118.261C118.196 52.6803 118.134 52.6507 118.095 52.5988L114.982 48.5769C114.923 48.5036 114.923 48.3985 114.982 48.3241Z" fill="#44C8D4"/>
<path d="M120.773 48.4352C120.773 47.8482 120.869 47.293 121.062 46.7686C121.254 46.2441 121.537 45.787 121.91 45.3972C122.284 45.0086 122.742 44.7003 123.286 44.4747C123.828 44.2491 124.446 44.1357 125.136 44.1357C125.781 44.1357 126.364 44.2373 126.885 44.4405C127.405 44.6436 127.85 44.9307 128.218 45.3039C128.585 45.676 128.874 46.1307 129.084 46.6658C129.294 47.2021 129.409 47.7974 129.433 48.4518C129.443 48.6667 129.449 48.9289 129.449 49.2384C129.449 49.5491 129.466 49.8904 129.5 50.2625C129.534 50.6346 129.596 51.0267 129.687 51.4389C129.757 51.7567 129.857 52.0756 129.987 52.3957C130.043 52.5327 129.942 52.6827 129.793 52.6827H128.211C128.128 52.6827 128.051 52.6343 128.018 52.5575C127.91 52.3095 127.821 52.0567 127.749 51.7968C127.704 51.6362 127.501 51.5866 127.39 51.7106C127.145 51.9858 126.858 52.2138 126.529 52.3945C126.076 52.6426 125.532 52.7666 124.9 52.7666C124.3 52.7666 123.746 52.6544 123.236 52.4276C122.727 52.202 122.291 51.8949 121.929 51.5051C121.567 51.1153 121.285 50.6594 121.081 50.1337C120.877 49.6081 120.773 49.0435 120.773 48.4352ZM125.135 46.0315C124.716 46.0315 124.36 46.0941 124.065 46.2182C123.772 46.3422 123.531 46.5146 123.344 46.7343C123.157 46.954 123.022 47.2115 122.936 47.5044C122.851 47.7986 122.81 48.1139 122.81 48.4518C122.81 48.7896 122.852 49.1061 122.936 49.3991C123.022 49.6932 123.157 49.9495 123.344 50.1692C123.531 50.3889 123.77 50.5613 124.065 50.6854C124.359 50.8094 124.716 50.872 125.135 50.872C125.837 50.872 126.389 50.6771 126.79 50.2885C127.192 49.8999 127.394 49.288 127.394 48.4529C127.359 47.7088 127.167 47.1194 126.817 46.6847C126.465 46.2489 125.904 46.0315 125.135 46.0315Z" fill="#44C8D4"/>
</svg>
