<svg width="32" height="32" viewBox="0 0 32 32" fill="none" xmlns="http://www.w3.org/2000/svg">
<path d="M16 20C18.2091 20 20 18.2091 20 16C20 13.7909 18.2091 12 16 12C13.7909 12 12 13.7909 12 16C12 18.2091 13.7909 20 16 20Z" stroke="#F2F2F2" stroke-width="2.66667" stroke-linecap="round" stroke-linejoin="round"/>
<path d="M25.8668 20C25.6893 20.4022 25.6364 20.8483 25.7148 21.2808C25.7932 21.7133 25.9994 22.1124 26.3068 22.4267L26.3868 22.5067C26.6348 22.7543 26.8315 23.0484 26.9657 23.3722C27.0999 23.6959 27.1689 24.0429 27.1689 24.3933C27.1689 24.7438 27.0999 25.0908 26.9657 25.4145C26.8315 25.7382 26.6348 26.0323 26.3868 26.28C26.1392 26.5279 25.8451 26.7246 25.5213 26.8588C25.1976 26.993 24.8506 27.0621 24.5002 27.0621C24.1497 27.0621 23.8027 26.993 23.479 26.8588C23.1553 26.7246 22.8612 26.5279 22.6135 26.28L22.5335 26.2C22.2193 25.8926 21.8201 25.6864 21.3876 25.608C20.9551 25.5296 20.509 25.5825 20.1068 25.76C19.7125 25.929 19.3761 26.2097 19.1392 26.5674C18.9023 26.9251 18.7752 27.3443 18.7735 27.7733V28C18.7735 28.7072 18.4925 29.3855 17.9924 29.8856C17.4924 30.3857 16.8141 30.6667 16.1068 30.6667C15.3996 30.6667 14.7213 30.3857 14.2212 29.8856C13.7211 29.3855 13.4402 28.7072 13.4402 28V27.88C13.4298 27.4387 13.287 27.0107 13.0302 26.6516C12.7734 26.2925 12.4145 26.019 12.0002 25.8667C11.598 25.6892 11.1519 25.6362 10.7194 25.7147C10.2869 25.7931 9.88773 25.9993 9.5735 26.3067L9.4935 26.3867C9.24583 26.6346 8.95173 26.8313 8.628 26.9655C8.30428 27.0997 7.95727 27.1688 7.60683 27.1688C7.25639 27.1688 6.90938 27.0997 6.58566 26.9655C6.26193 26.8313 5.96782 26.6346 5.72016 26.3867C5.47223 26.139 5.27553 25.8449 5.14134 25.5212C5.00714 25.1974 4.93807 24.8504 4.93807 24.5C4.93807 24.1496 5.00714 23.8026 5.14134 23.4788C5.27553 23.1551 5.47223 22.861 5.72016 22.6133L5.80016 22.5333C6.10755 22.2191 6.31374 21.82 6.39217 21.3875C6.47059 20.9549 6.41765 20.5088 6.24016 20.1067C6.07115 19.7123 5.7905 19.376 5.43278 19.1391C5.07506 18.9022 4.65588 18.775 4.22683 18.7733H4.00016C3.29292 18.7733 2.61464 18.4924 2.11454 17.9923C1.61445 17.4922 1.3335 16.8139 1.3335 16.1067C1.3335 15.3994 1.61445 14.7211 2.11454 14.2211C2.61464 13.721 3.29292 13.44 4.00016 13.44H4.12016C4.56149 13.4297 4.9895 13.2868 5.34856 13.03C5.70762 12.7732 5.98112 12.4143 6.1335 12C6.31098 11.5978 6.36393 11.1517 6.2855 10.7192C6.20708 10.2867 6.00088 9.88757 5.6935 9.57334L5.6135 9.49334C5.36556 9.24567 5.16887 8.95157 5.03467 8.62784C4.90047 8.30412 4.8314 7.95711 4.8314 7.60667C4.8314 7.25623 4.90047 6.90922 5.03467 6.5855C5.16887 6.26177 5.36556 5.96766 5.6135 5.72C5.86116 5.47207 6.15526 5.27537 6.47899 5.14118C6.80272 5.00698 7.14972 4.9379 7.50016 4.9379C7.8506 4.9379 8.19761 5.00698 8.52134 5.14118C8.84507 5.27537 9.13917 5.47207 9.38683 5.72L9.46683 5.8C9.78107 6.10739 10.1802 6.31358 10.6127 6.39201C11.0452 6.47043 11.4913 6.41749 11.8935 6.24H12.0002C12.3945 6.07099 12.7309 5.79034 12.9678 5.43262C13.2047 5.0749 13.3318 4.65572 13.3335 4.22667V4C13.3335 3.29276 13.6144 2.61448 14.1145 2.11438C14.6146 1.61429 15.2929 1.33334 16.0002 1.33334C16.7074 1.33334 17.3857 1.61429 17.8858 2.11438C18.3859 2.61448 18.6668 3.29276 18.6668 4V4.12C18.6685 4.54905 18.7957 4.96824 19.0326 5.32596C19.2695 5.68368 19.6058 5.96432 20.0002 6.13334C20.4023 6.31082 20.8484 6.36377 21.2809 6.28534C21.7135 6.20692 22.1126 6.00072 22.4268 5.69334L22.5068 5.61334C22.7545 5.3654 23.0486 5.16871 23.3723 5.03451C23.6961 4.90031 24.0431 4.83124 24.3935 4.83124C24.7439 4.83124 25.0909 4.90031 25.4147 5.03451C25.7384 5.16871 26.0325 5.3654 26.2802 5.61334C26.5281 5.861 26.7248 6.1551 26.859 6.47883C26.9932 6.80256 27.0623 7.14956 27.0623 7.5C27.0623 7.85044 26.9932 8.19745 26.859 8.52118C26.7248 8.84491 26.5281 9.13901 26.2802 9.38667L26.2002 9.46667C25.8928 9.78091 25.6866 10.18 25.6082 10.6126C25.5297 11.0451 25.5827 11.4912 25.7602 11.8933V12C25.9292 12.3944 26.2098 12.7307 26.5675 12.9676C26.9253 13.2045 27.3444 13.3316 27.7735 13.3333H28.0002C28.7074 13.3333 29.3857 13.6143 29.8858 14.1144C30.3859 14.6145 30.6668 15.2928 30.6668 16C30.6668 16.7072 30.3859 17.3855 29.8858 17.8856C29.3857 18.3857 28.7074 18.6667 28.0002 18.6667H27.8802C27.4511 18.6684 27.0319 18.7955 26.6742 19.0324C26.3165 19.2693 26.0358 19.6056 25.8668 20V20Z" stroke="#F2F2F2" stroke-width="2.66667" stroke-linecap="round" stroke-linejoin="round"/>
</svg>
